<svg width="25" height="26" viewBox="0 0 25 26" fill="none" xmlns="http://www.w3.org/2000/svg">
<path d="M2.94995 24.15C0.499951 22.1 0 20.3 0 13.8C0 6.05001 0.95 3.95001 5.25 1.95001C8.1 0.650006 16.9 0.650006 19.75 1.95001C24.05 3.95001 25 6.05001 25 13.8C25 20.05 24.5 21.95 22.3 24C21.15 25.05 20.85 25.1 20.45 24.5C20.2 24.1 20.05 23.2 20.2 22.5C20.35 21.55 19.9 20.75 18.2 19.05C16.1 17 15.95 16.9 15.1 17.7C13.85 18.8 13.5 18.3 13.5 15.25C13.5 13.5 13.75 12.4 14.25 12C15.45 11 15.2 8.65001 13.75 7.70001C12.05 6.60001 10.8 6.95001 10.6 8.70001C10.45 9.80001 10.2 10.05 9.44995 9.85001C8.89995 9.70001 8.5 9.85001 8.5 10.15C8.5 10.5 8.35002 11.3 8.15002 12C7.85002 13.15 7.89995 13.2 8.69995 12.55C9.14995 12.15 9.55002 11.95 9.65002 12.05C10.75 13.95 11 14.75 11 16.1C10.95 17.65 10.95 17.7 10.25 16.8C9.5 15.8 9.5 15.8 9.5 16.8C9.5 17.3 8.7 18.4 7.75 19.15C6.55 20.1 6 20.95 6 21.9C6 23.7 5.5 25.5 5 25.5C4.75 25.5 3.84995 24.9 2.94995 24.15ZM13.75 6.05001C14.15 5.35001 13.25 4.95001 12.25 5.30001C11.6 5.55001 11.55 5.70001 12.1 6.05001C12.95 6.60001 13.4 6.60001 13.75 6.05001Z" fill="#00C3F8"/>
</svg>