<svg width="43" height="32" viewBox="0 0 43 32" fill="none" xmlns="http://www.w3.org/2000/svg">
<path d="M3 30.85C1.05 29.85 0.5 28.2 0.5 22.9C0.5 18.3 0.550003 18.05 1.8 17.05C2.55 16.45 3.55 16 4.05 16C4.6 16 5 15.7 5 15.4C5 14.95 5.2 15 5.5 15.5C5.9 16.1 6 16.05 6 15.15C6 14.5 6.14999 14 6.39999 14C6.59999 14 7.14999 13.15 7.64999 12.15C8.14999 11.1 8.90001 9.6 9.35001 8.75C9.80001 7.95 10.3 6.9 10.5 6.5C10.7 6.1 11.3 5.55 11.9 5.25C12.6 4.95 12.9 4.44999 12.75 3.89999C12.4 2.84999 14.35 0.950006 15.4 1.35001C15.85 1.55001 16.05 1.44999 15.85 1.14999C15.4 0.399994 16.65 0 19.4 0C22.65 0.05 25.1 0.649994 26.55 1.89999C34.35 8.54999 35.6 9.25 39.4 9.2H42.5V18.8V28.4L40.95 29.95L39.4 31.5H21.85C8.75001 31.5 3.95 31.35 3 30.85Z" fill="#EDECF7"/>
</svg>
