<svg width="44" height="34" viewBox="0 0 44 34" fill="none" xmlns="http://www.w3.org/2000/svg">
<path d="M4.14997 33.45C0.999965 32.55 0.899959 32.15 0.799959 15.8C0.749959 4.44999 0.899977 0.949987 1.34998 0.799987C2.04998 0.499987 2.44998 0.999981 2.94998 2.69998C3.69998 5.24998 7.79998 11.35 9.94998 13.15C13.2 15.8 15.45 16.35 19.3 15.35C21.05 14.9 23 14 23.75 13.3C24.55 12.6 25.6 12 26.2 12C27.05 12 27.1 11.9 26.5 11.5C25.9 11.1 25.95 11 26.9 11C27.5 11 28 10.7 28 10.35C28 8.89999 29.55 6.59999 30.75 6.29999C31.65 6.04999 32 5.64998 32 4.74998C32 2.94998 33.75 1.99998 37.1 1.99998C38.7 1.99998 40.5 2.24999 41.15 2.59999C41.75 2.89999 42.6 3.29998 43 3.49998C43.65 3.79998 43.75 5.84998 43.75 17.15C43.75 29.85 43.7 30.5 42.7 31.85C42.1 32.6 41 33.4 40.2 33.55C37.9 34.05 5.89997 33.95 4.14997 33.45Z" fill="#EDECF7"/>
</svg>
