<svg width="648" height="265" viewBox="0 0 648 265" fill="none" xmlns="http://www.w3.org/2000/svg">
<path d="M6.70003 263.55C3.75003 262.2 1.15003 258.95 0.550033 255.8C-0.199967 251.9 0.150024 9.14998 0.900024 7.39998C1.85002 5.14998 4.95002 2.09999 7.15002 1.24999C9.05002 0.549986 38.25 0.499992 324.8 0.599992L640.35 0.749986L642.5 2.24999C643.65 3.04999 645.2 4.64999 645.95 5.74999L647.25 7.74999L647.4 131.9C647.5 246.45 647.45 256.2 646.7 257.85C645.65 260.05 642.2 263.4 640.55 263.9C639.85 264.1 542.05 264.25 423.25 264.25H207.25L207.2 167.25C207.2 113.9 207 69.45 206.75 68.5C205.65 63.4 201.25 58.4 196.2 56.55C191.85 54.9 187.8 55.05 183.4 57.1C179.45 58.9 177 61.35 175.05 65.45L173.75 68.25L173.5 166.25L173.25 264.25L91 264.35C12.2 264.45 8.65003 264.45 6.70003 263.55ZM525.55 231.5C525.25 230.4 524.75 229.4 524.5 229.25C523.95 228.9 523.8 232.9 524.3 234.2C524.55 234.9 524.65 234.9 525.35 234.2C526 233.55 526.05 233.1 525.55 231.5ZM74.35 229.15C74.25 228.1 74.15 228.85 74.15 230.75C74.15 232.7 74.25 233.5 74.35 232.65C74.45 231.75 74.45 230.15 74.35 229.15ZM155.15 232.9C154.6 232.25 154.2 231.4 154.35 231C154.5 230.5 154.4 230.55 154 231.1C153.6 231.75 153.65 232.2 154.35 232.95C154.85 233.5 155.45 233.95 155.7 233.95C155.95 234 155.7 233.5 155.15 232.9ZM160.8 233.2C160.35 232.8 160 232.1 160 231.75C160 231.25 159.5 231.15 158.15 231.35C155.9 231.7 155.8 231.75 156.25 232.45C156.4 232.75 157.1 233 157.8 233C158.45 233 159 233.2 159 233.4C159 233.6 159.6 233.85 160.3 233.9C161.45 234 161.5 233.9 160.8 233.2ZM234.3 233.3C234.7 232.9 235 231.85 235 231C235 229.75 234.8 229.45 234.15 229.6C233.5 229.7 233.2 230.35 233.1 231.9C232.95 234.15 233.15 234.4 234.3 233.3ZM375 233.75C375 233.65 374.55 233.3 374 233C373.2 232.55 373 232.6 373 233.25C373 233.65 373.45 234 374 234C374.55 234 375 233.9 375 233.75ZM517.45 231.65C517.45 229.65 517.35 229.45 516.95 230.4C516.55 231.45 516.8 234 517.3 234C517.4 234 517.5 232.95 517.45 231.65ZM519.5 233.25C519.7 233.4 520.05 232.7 520.2 231.75C520.45 230.55 520.3 229.65 519.7 228.75C519.25 228.05 518.8 227.5 518.7 227.5C518.6 227.5 518.5 229 518.55 230.9C518.55 232.75 518.7 233.95 518.85 233.6C518.95 233.3 519.25 233.1 519.5 233.25ZM592.25 233.15C591.65 232.6 591.45 231.7 591.6 230.2C591.65 229.05 591.6 228.2 591.4 228.3C591.25 228.4 590.95 228.2 590.85 227.9C590.7 227.55 590.55 228.3 590.55 229.6C590.5 230.85 590.35 232.3 590.2 232.7C589.95 233.3 590.1 233.45 590.7 233.2C591.15 233.05 591.5 233.15 591.5 233.45C591.5 233.75 591.85 234 592.3 234C593 234 593 233.9 592.25 233.15ZM597.35 230.15C597.25 229.35 597.15 230 597.15 231.5C597.15 233 597.25 233.65 597.35 232.9C597.45 232.1 597.45 230.9 597.35 230.15ZM599.55 230.75C599.8 230.95 600 231.7 600 232.55C600 233.35 600.15 234 600.4 234C600.6 234 600.7 233 600.6 231.75C600.45 229.95 600.2 229.5 599.45 229.5C598.65 229.5 598.5 229.85 598.6 231.9C598.65 234.05 598.7 234.1 598.85 232.35C598.95 231.35 599.25 230.6 599.55 230.75ZM80.9 230.5C80.8 229.7 80.85 229.15 81.05 229.25C81.25 229.4 81.5 229.2 81.65 228.85C81.8 228.45 81.45 228.15 80.75 228.1C79.75 228.05 79.6 228.25 79.6 229.9C79.55 230.9 79.7 232.2 79.85 232.7C80.1 233.6 80.15 233.6 80.6 232.8C80.9 232.3 81 231.25 80.9 230.5ZM379.5 232.75C379.5 232.35 379.3 232 379 232C378.75 232 378.5 232.35 378.5 232.75C378.5 233.15 378.75 233.5 379 233.5C379.3 233.5 379.5 233.15 379.5 232.75ZM513.85 230.15C513.75 229.35 513.65 229.9 513.65 231.25C513.65 232.65 513.75 233.25 513.85 232.65C513.95 232 513.95 230.9 513.85 230.15ZM76.1 231.5C76.25 230.7 76.15 229.75 75.9 229.4C75.7 229 75.5 229.6 75.5 230.9C75.5 233.35 75.8 233.65 76.1 231.5ZM84.25 231.25C84.25 230.1 84.05 229.75 83.25 229.75C82.2 229.75 81.7 231 82.2 232.3C82.75 233.7 84.25 232.9 84.25 231.25ZM86.65 230.7C86.2 229.5 85.75 229.95 85.7 231.6C85.65 233 85.7 233.1 86.3 232.3C86.65 231.8 86.8 231.1 86.65 230.7ZM152.15 231.95C153 230.75 152.6 228.4 151.45 228.1C150.9 227.95 150.9 228 151.4 228.4C152.45 229.1 152 232.25 150.9 232.2C150.4 232.15 150 232.3 150 232.55C150 233.4 151.45 233 152.15 231.95ZM162.15 231.8C161.65 231.15 161.15 230.8 161.1 231.05C160.75 231.9 161.45 233 162.25 233C162.95 233 162.95 232.85 162.15 231.8ZM228.7 232.7C229.15 232.55 229.5 232.2 229.5 232C229.5 231.4 227.85 231.75 227.6 232.4C227.4 233.1 227.6 233.15 228.7 232.7ZM304.45 229.65C304.4 227.75 304.25 226.85 304.15 227.65C304.05 228.4 303.75 229 303.5 229C303.2 229 303.2 229.5 303.5 230.25C303.95 231.4 303.85 231.5 302.35 231.55C301.5 231.6 300.6 231.6 300.4 231.55C299.9 231.5 299.9 232.2 300.35 232.65C300.5 232.85 301.55 233 302.6 233H304.5L304.45 229.65ZM307.5 232.5C307.5 232.25 307.15 232 306.75 232C306.3 232 306 231.55 306 230.95C306 230.2 306.25 230 306.75 230.2C307.15 230.35 307.5 230.25 307.5 229.95C307.5 229.65 307.1 229.5 306.65 229.6C306.05 229.7 305.7 230.3 305.6 231.4C305.45 232.75 305.6 233 306.45 233C307.05 233 307.5 232.8 307.5 232.5ZM376.9 232.05C377.05 231.65 376.85 231.45 376.45 231.6C376.1 231.7 375.7 232.1 375.6 232.45C375.45 232.85 375.65 233.05 376.05 232.9C376.4 232.8 376.8 232.4 376.9 232.05ZM449.25 231.25C449.25 230.3 449 229.75 448.5 229.7C448.05 229.7 448 229.75 448.4 229.85C449.25 230.15 449.15 232 448.25 232C447.85 232 447.5 232.25 447.5 232.55C447.5 232.85 447.9 233 448.4 232.9C448.95 232.8 449.25 232.25 449.25 231.25ZM522.65 232.25C522.7 232 522.35 231.7 521.9 231.6C521.35 231.5 521 231.75 521 232.25C521 233.1 522.5 233.15 522.65 232.25ZM589 232.5C589 232.25 588.4 232 587.65 232C586.55 232 586.4 232.1 587 232.5C588 233.15 589 233.15 589 232.5ZM594.75 230.55C594.75 228.65 594.6 228.3 593.7 228.25C592.8 228.2 592.7 228.45 592.8 230.45C592.85 231.7 592.95 232.8 592.95 232.9C593 233 593.4 233 593.9 232.9C594.55 232.75 594.75 232.25 594.75 230.55ZM601.85 229.9C601.75 229.25 601.65 229.75 601.65 231C601.65 232.25 601.75 232.75 601.85 232.15C601.95 231.5 601.95 230.5 601.85 229.9ZM294.35 229.15C294.25 228.35 294.15 228.9 294.15 230.25C294.15 231.65 294.25 232.25 294.35 231.65C294.45 231 294.45 229.9 294.35 229.15ZM527.5 230.95C527.5 230.4 527.3 230.1 527 230.25C526.75 230.4 526.5 230.15 526.45 229.65C526.45 229.15 526.3 229 526.2 229.35C525.95 229.9 526.8 232 527.25 232C527.4 232 527.5 231.55 527.5 230.95ZM78.45 229.15C78.35 226.85 78.35 226.8 78.05 228.5C77.85 229.45 77.8 230.55 77.9 230.9C78.3 232.1 78.5 231.45 78.45 229.15ZM301.55 230.3C301.8 230.45 302 230.3 302 230.05C302 229.4 300.65 229.3 300.3 229.95C300.15 230.15 300.2 230.5 300.4 230.7C300.55 230.9 300.8 230.8 300.9 230.55C301 230.25 301.3 230.1 301.55 230.3ZM445.15 230.05C445.3 229.45 445 228.7 444.35 228.15C443.7 227.55 443.5 227.5 443.8 228C444.25 228.8 444.35 229.05 444.45 230.25C444.5 231.3 444.85 231.2 445.15 230.05ZM158 229.9C158 229.7 157.55 229.5 157 229.5C156.45 229.5 156 229.7 156 229.95C156 230.25 156.45 230.4 157 230.35C157.55 230.3 158 230.1 158 229.9ZM229.25 230C229.1 229.75 228.45 229.5 227.85 229.5C226.95 229.5 226.9 229.6 227.5 230C228.5 230.65 229.65 230.65 229.25 230ZM299.55 229.45C299.95 228.65 299.95 228.3 299.5 228C298.65 227.45 297 228 297 228.8C297 229.8 296.1 229.65 295.85 228.65C295.7 228 295.6 228.1 295.55 228.95C295.5 229.85 295.7 230.05 296.45 229.85C296.95 229.75 297.7 229.8 298.05 230.05C298.95 230.6 298.9 230.65 299.55 229.45ZM377 230C377 229.75 376.55 229.5 375.95 229.5C375.4 229.5 375.1 229.75 375.25 230C375.4 230.3 375.9 230.5 376.3 230.5C376.7 230.5 377 230.3 377 230ZM443 229.4C443 228.45 442.9 228.4 442.5 229C441.85 229.95 441.85 230.5 442.5 230.5C442.8 230.5 443 230 443 229.4ZM522.5 230C522.5 229.75 522.15 229.5 521.75 229.5C521.35 229.5 521 229.75 521 230C521 230.3 521.35 230.5 521.75 230.5C522.15 230.5 522.5 230.3 522.5 230ZM28.45 205.4C28.45 204.6 28.35 204.5 28.15 205C28 205.4 27.6 205.9 27.3 206.1C26.95 206.35 27.1 206.5 27.65 206.5C28.2 206.5 28.5 206.15 28.45 205.4ZM569.55 192.35C569.65 187.75 569.85 185.85 570.35 185.45C570.85 185 571 180.1 571 159.95C571 135.85 570.95 135 570.05 134.5C568.55 133.7 567.1 133.9 566.5 134.95C566.2 135.6 566 144.4 566 160.2C566 180.05 566.1 184.55 566.7 185.1C567.15 185.6 567.4 187.35 567.45 190.75C567.6 197.55 568 197.45 568 190.65C568 186.15 567.85 185.05 567.25 184.8C566.6 184.55 566.5 181.5 566.6 159.95C566.75 137.15 566.8 135.3 567.65 134.8C568.25 134.4 568.75 134.4 569.4 134.8C570.2 135.3 570.25 137.15 570.4 159.6C570.5 180.75 570.4 183.95 569.75 184.5C569.15 185 569 186.5 569 192.15C569 196 569.1 199.05 569.2 198.95C569.35 198.85 569.5 195.85 569.55 192.35ZM325.65 195.15C325.15 195 325 192.5 325 185.25C325 177.3 324.85 175.5 324.25 175C323.65 174.5 323.5 172.45 323.4 163.3L323.25 152.25L323.15 163.2C323 171.7 323.15 174.55 323.65 175.7C324.15 176.85 324.3 179.4 324.25 185.5C324.15 193.55 324.4 195.55 325.65 195.45C326.1 195.45 326.1 195.35 325.65 195.15ZM327.25 175.5C327.9 174.95 328 170.1 328 139.45C328 107.95 327.9 104 327.2 103.3C326.4 102.45 325.15 102.3 323.8 102.8C323.15 103.05 323 103.8 323.1 106.7L323.2 110.25L323.35 106.9C323.55 103.8 323.65 103.5 324.8 103.2C327.6 102.5 327.5 101.05 327.5 139.35C327.5 170.15 327.4 174.55 326.75 174.8C326.1 175.05 326 176.6 326.1 184.95L326.25 194.75L326.35 185.45C326.5 177.95 326.65 176 327.25 175.5ZM80.25 168.9C79.6 168.5 79.5 164.2 79.5 133.1C79.5 113.65 79.7 97.5 79.9 97.2C80.1 96.9 80.6 96.5 81 96.35C81.65 96.15 81.6 96.05 80.95 96.05C80.5 96 79.9 96.3 79.55 96.65C79.2 97.1 79 107.95 79 132.95C78.95 164.65 79 168.7 79.7 169.45C80.35 170.2 80.5 172.25 80.6 182.05L80.75 193.75L80.85 181.5C81 171 80.9 169.25 80.25 168.9ZM83.4 169.35C83.9 168.75 84.05 164.2 84 148.2C84 137 83.85 127.7 83.75 127.55C83.6 127.45 83.5 136.5 83.5 147.7C83.55 165.45 83.45 168.25 82.75 169C82.1 169.7 82 171.6 82.1 181.55L82.2 193.25L82.5 181.7C82.7 173.35 82.95 169.95 83.4 169.35ZM433.65 189.15C433.15 189 433 186.2 433 177.75C433 168.45 432.9 166.5 432.25 166C431.1 165.05 431.1 125.45 432.25 124.5C432.85 124 433.3 124 434.25 124.4L435.5 125V145.25C435.5 162.8 435.4 165.55 434.75 165.8C434.1 166.05 434 167.75 434.1 177.2L434.2 188.25L434.5 177.7C434.65 170.3 434.95 166.9 435.4 166.4C435.85 165.8 436 161 435.9 144.95L435.75 124.3L434.1 123.8C430.95 122.9 431.05 122.5 431 145.2C430.95 162.2 431.1 165.75 431.65 166.45C432.25 167.1 432.35 169.2 432.25 177.5C432.15 187.5 432.4 189.55 433.65 189.45C434.1 189.45 434.1 189.35 433.65 189.15ZM135.35 148.4C135.3 140.9 135.25 147 135.25 162C135.25 177 135.3 183.1 135.35 175.65C135.45 168.15 135.45 155.85 135.35 148.4ZM136.85 148.4C136.8 140.9 136.75 147 136.75 162C136.75 177 136.8 183.1 136.85 175.65C136.95 168.15 136.95 155.85 136.85 148.4ZM569.4 160.8C569.5 141.8 569.4 137.8 568.8 137.25C568.45 136.85 568 136.7 567.8 136.85C567.4 137.25 567.4 182.15 567.8 183.25C568 183.7 568.4 183.95 568.7 183.85C569.1 183.7 569.3 177.2 569.4 160.8ZM110.25 166.3C110.9 165.85 111 161.95 111.1 139.85L111.25 113.95L110.05 113.65C109.4 113.5 108.25 113.55 107.55 113.8L106.25 114.25L106.1 139.6C106 161.45 106.1 165 106.75 165.65C107.3 166.25 107.5 168.15 107.65 174.35L107.8 182.25L107.9 174.2C108 167.55 107.85 166 107.25 165.5C106.6 164.95 106.5 161.5 106.5 140.05C106.5 121.4 106.65 115.05 107.1 114.6C107.95 113.75 109.85 113.85 110.2 114.8C110.35 115.25 110.5 126.8 110.5 140.55C110.5 162.3 110.4 165.55 109.75 165.8C109.1 166.05 109 167.4 109.1 174.45L109.2 182.75L109.35 174.8C109.5 168.5 109.7 166.75 110.25 166.3ZM218.25 181C218.4 180.75 218.5 174.55 218.5 167.25C218.5 155.95 218.6 153.75 219.3 152.75C220 151.7 220.1 149 220.15 132.75C220.15 120.75 220 113.8 219.7 113.5C218.9 112.7 216.1 112.5 215.55 113.2C215.15 113.65 214.75 143.65 215 153.4C215 153.75 215.25 153.9 215.5 153.75C215.8 153.6 216 153.75 216.05 154.1C216.05 154.45 216.05 160.4 216.1 167.25C216.1 174.15 216.3 180.15 216.55 180.65C217.1 181.6 217.8 181.75 218.25 181ZM373.75 152.5C373.1 151.75 373 149.2 373.1 133.2L373.25 114.75L374.4 114.6C375.05 114.5 375.85 114.65 376.2 114.95C376.9 115.55 377.65 115.15 377.2 114.45C376.7 113.65 372.65 113.95 372.3 114.8C372.15 115.25 372 123.8 372 133.8C372 151.35 372.05 152.05 373 153C373.95 153.95 374 154.75 374.1 167.15L374.25 180.25L374.35 166.8C374.5 155.3 374.4 153.2 373.75 152.5ZM375.85 168.9C375.8 166.9 375.7 168.5 375.7 172.5C375.7 176.5 375.8 178.1 375.85 176.15C375.95 174.15 375.95 170.85 375.85 168.9ZM540 150.65C539.35 150.2 539 149.4 539 148.35V146.75L540 148.4C541.2 150.3 542 150.45 542 148.75C542 148.05 542.25 147.5 542.5 147.5C543.05 147.5 543.2 89.15 542.7 87.15C542.1 85 540.5 86.05 540.5 88.55C540.5 89.75 539.15 89.8 538.9 88.65C538.45 86.5 539.15 84.9 540.7 84.2C542.2 83.55 542.25 83.55 540.95 83.5C540.25 83.5 539.25 83.95 538.7 84.55C537.8 85.55 537.75 86.85 537.75 117.2C537.75 134.55 537.85 149.1 538 149.5C538.15 149.9 538.7 150.6 539.25 151.05C540.15 151.85 540.25 152.6 540.3 162.3C540.4 176.95 540.7 177.45 540.85 163.3C541 151.8 541 151.35 540 150.65ZM326.4 140.2C326.45 121.8 326.4 106.25 326.25 105.6C326 104.7 325.85 104.6 325.35 105.1C324.9 105.6 324.75 113.6 324.75 139.5C324.8 158.05 324.85 173.45 324.9 173.65C324.95 173.9 325.3 174 325.65 173.9C326.1 173.7 326.3 166.45 326.4 140.2ZM542.7 162.9C542.85 153.9 543 152 543.75 150.6C544.55 149.05 544.6 146.6 544.55 118.1C544.5 101.15 544.35 86.5 544.2 85.65C544 84.7 543.6 84 543.15 84C542.55 84 542.55 84.15 543.2 85.1C543.9 86.1 544 90.05 544 117.8C544 148.7 544 149.35 543 150.25C542.05 151.1 542 151.8 542 162.65C542 169 542.15 174.05 542.3 173.85C542.45 173.7 542.65 168.75 542.7 162.9ZM405.25 151.9C404.6 151.5 404.5 148 404.5 123.35C404.5 102.1 404.65 95.05 405.1 94.6C405.55 94.15 405.5 94 404.85 94C404.1 94 404 96.15 403.9 122.1C403.75 145.7 403.85 150.5 404.45 152C404.95 153.15 405.3 156.55 405.45 162L405.75 170.25L405.9 161.3C406 153.65 405.9 152.25 405.25 151.9ZM407.8 161.2C407.85 155.6 408.1 152.75 408.5 152.25C408.95 151.7 409.1 144.65 409.1 123.45C409.05 97 409 95.3 408.15 94.55C407.65 94.1 407.5 94.05 407.9 94.5C408.35 95.05 408.5 101.6 408.5 123.05C408.5 147.15 408.4 150.95 407.75 151.5C407.15 152 407 153.75 407 161.15C407 166.1 407.15 170 407.4 169.8C407.6 169.6 407.8 165.7 407.8 161.2ZM82.45 133.25C82.45 115.95 82.35 101 82.2 100.15C82 99.2 81.6 98.5 81.2 98.5C80.6 98.5 80.5 103.8 80.5 132.5C80.5 154.85 80.65 166.5 81 166.5C81.3 166.5 81.5 166.9 81.55 167.4C81.6 167.85 81.8 167.45 82.05 166.5C82.25 165.55 82.45 150.6 82.45 133.25ZM27.45 165.65C27.4 164.8 27.3 164.6 27.15 165.15C27.05 165.6 26.7 166 26.45 166C26.2 166 26 166.25 26 166.5C26 166.8 26.35 167 26.75 167C27.25 167 27.5 166.55 27.45 165.65ZM30.75 163.85C30.75 162.25 30.6 160.7 30.45 160.4C30.25 160.1 30.15 161.15 30.2 162.7C30.25 166.25 29.15 167.05 28.85 163.6C28.7 161.35 28.7 161.35 28.6 164.15C28.5 166.9 28.55 167.05 29.65 166.9C30.65 166.75 30.75 166.45 30.75 163.85ZM487.1 137.65C487.2 128.8 487.1 124.2 486.75 124.55C486.25 125.05 485.95 162.75 486.45 165C486.75 166.3 486.9 160.15 487.1 137.65ZM434.25 145.2C434.25 128.25 434.15 125.75 433.5 125.75C432.85 125.75 432.75 128.25 432.6 144.75C432.55 155.2 432.6 164.05 432.75 164.4C432.9 164.8 433.3 165 433.65 164.85C434.1 164.7 434.25 160.35 434.25 145.2ZM109.5 139.7C109.5 116.35 109.5 116 108.5 116C107.5 116 107.5 116.35 107.5 139.65C107.5 152.7 107.65 163.45 107.8 163.65C107.95 163.8 108.4 163.8 108.8 163.65C109.4 163.45 109.5 159.55 109.5 139.7ZM376.75 153.35C377.15 153.15 377.5 152.35 377.5 151.6C377.45 150.35 377.45 150.3 376.9 151.25C376.6 151.8 376.1 152.4 375.8 152.6C375.45 152.8 375.35 154.75 375.5 158.6L375.75 164.25L375.9 159C376 155.05 376.2 153.65 376.75 153.35ZM162.25 133C161.6 132.3 161.5 129.55 161.5 114.1C161.5 96.75 161.55 96 162.45 95.5C163.7 94.85 163.8 94.85 164.7 95.8C165.4 96.45 165.5 98.85 165.5 114.55C165.5 130.05 165.4 132.55 164.75 132.8C164.1 133.05 164 135.25 164.05 148.45C164.1 157.15 164.3 162.55 164.5 161C164.7 159.5 164.75 153 164.65 146.65C164.5 136.75 164.6 134.85 165.25 133.8C165.9 132.8 166.05 130.05 166.05 114.05C166.05 103.8 165.9 95.3 165.8 95.05C165.65 94.85 164.55 94.65 163.4 94.7L161.25 94.75L161.1 113.25C161 129.1 161.1 132.1 161.75 134.35C162.4 136.45 162.55 139 162.45 147.85C162.4 153.85 162.45 159.9 162.55 161.25C162.65 162.65 162.8 157 162.85 148.8C163 136 162.9 133.7 162.25 133ZM243.85 132.9C243.8 127.3 243.75 131.85 243.75 143C243.75 154.15 243.8 158.7 243.85 153.15C243.95 147.55 243.95 138.45 243.85 132.9ZM245.7 141C245.65 131.6 245.45 123.8 245.3 123.65C245.15 123.45 245.05 132.3 245.05 143.3C245.1 154.25 245.3 162.1 245.45 160.65C245.65 159.25 245.75 150.4 245.7 141ZM488.35 134.6C488.3 129.75 488.25 133.85 488.25 143.75C488.25 153.65 488.3 157.65 488.35 152.6C488.45 147.55 488.45 139.45 488.35 134.6ZM300.5 158.75C300.9 158.3 301.05 153 301 142.4C301 128.35 300.9 126.7 300.15 126.15C299.7 125.8 298.95 125.5 298.55 125.5C297.95 125.55 298 125.65 298.75 126.1C299.3 126.4 299.9 126.9 300.1 127.2C300.3 127.5 300.5 134.55 300.5 142.8C300.5 159.05 300.45 159.3 297.9 158.9L296.75 158.75L296.6 143.05C296.5 131.9 296.65 127.15 297.05 126.7C297.5 126.15 297.45 126 296.8 126C296.1 126 296 127.55 296 142C296 150.8 295.95 158.15 295.95 158.4C295.8 159 298 159.9 299.05 159.65C299.55 159.5 300.2 159.1 300.5 158.75ZM270.25 132.7C269.6 132.2 269.5 130.05 269.6 116.2L269.75 100.25L270.9 100.1C273.45 99.7 273.5 99.95 273.5 116.5C273.5 129.55 273.4 131.95 272.75 132.5C272.1 133 272 135.1 272 145.65C272 152.55 272.1 158.05 272.25 157.9C272.4 157.75 272.55 152.25 272.55 145.6C272.55 135.7 272.7 133.5 273.25 133C273.9 132.5 274 129.75 274 116.25V100.1L272.1 99.65C268.65 98.75 268.75 98.3 268.8 116.55C268.85 131.05 268.95 132.95 269.7 134.15C270.25 135 270.55 136.3 270.5 137.85C270.45 139.15 270.5 144.4 270.55 149.5C270.75 158.35 270.75 158.2 270.85 146C271 135 270.9 133.15 270.25 132.7ZM299.4 142.3C299.25 128.9 299.2 127.75 298.4 127.6C297.55 127.45 297.5 128.4 297.5 142.4C297.5 150.6 297.65 157.5 297.85 157.65C298 157.85 298.45 157.75 298.85 157.45C299.4 156.95 299.5 154.1 299.4 142.3ZM323.35 149.4C323.25 148.75 323.15 149.15 323.15 150.25C323.1 151.35 323.2 151.85 323.35 151.4C323.45 150.9 323.45 150 323.35 149.4ZM459.25 129.4C458.6 129 458.5 126.3 458.5 108.5C458.5 89.55 458.55 88 459.4 87.55C459.85 87.25 460 87 459.7 87C458.1 86.95 458 88.1 458 109.1C458 127.35 458.1 130 458.75 130C459.4 130 459.5 131.6 459.6 141.15L459.75 152.25L459.85 141.05C460 131.4 459.9 129.75 459.25 129.4ZM461.55 140.95C461.6 132.15 461.75 130.1 462.35 129.4C463.5 128.15 463.65 89.2 462.5 87.9C462.1 87.4 461.45 87 461.05 87C460.5 87 460.65 87.25 461.4 87.8L462.5 88.55V108.45C462.5 125.55 462.4 128.45 461.75 129C461.1 129.5 461 131.5 461 140.9C461 147.1 461.1 152.05 461.25 151.95C461.35 151.8 461.5 146.85 461.55 140.95ZM375.5 133.5C375.5 118.45 375.4 115.5 374.8 115.5C374.4 115.5 373.95 115.85 373.8 116.3C373.65 116.75 373.5 124.7 373.5 134C373.5 150.95 373.55 151.3 375.15 151.45C375.35 151.5 375.5 143.4 375.5 133.5ZM407.5 123.9C407.5 101.65 407.4 97.3 406.8 96.7C406.4 96.3 405.95 96 405.8 96C405.4 96 405.4 149.7 405.8 150.7C406.05 151.35 406.25 151.4 406.8 150.95C407.4 150.5 407.5 145.85 407.5 123.9ZM323.35 144.65C323.25 143.85 323.15 144.4 323.15 145.75C323.15 147.15 323.25 147.75 323.35 147.15C323.45 146.5 323.45 145.4 323.35 144.65ZM347.5 146.25C348 145.65 348.15 140.2 348.25 122.85C348.35 100.25 348.2 98 346.65 98C346.05 98 346.1 98.15 346.7 98.8C347.4 99.5 347.5 102.3 347.5 122.05C347.5 136.6 347.3 144.9 347 145.55C346.7 146.1 345.95 146.5 345.25 146.5C344.55 146.5 343.8 146.1 343.5 145.55C342.9 144.4 342.8 100.1 343.4 99.2C343.6 98.9 344.2 98.4 344.75 98.1C345.75 97.55 345.75 97.55 344.7 97.5C344.1 97.5 343.4 97.8 343.1 98.15C342.7 98.6 342.55 106.15 342.5 122.1C342.5 142.75 342.55 145.5 343.3 146.2C344.3 147.2 346.7 147.25 347.5 146.25ZM594.25 134.5C593.6 133.8 593.5 131.25 593.5 116.7C593.5 104.15 593.65 99.55 594.1 99.1C595 98.2 596.4 98.4 597 99.45C597.3 100.1 597.5 106.6 597.5 117.15C597.5 131.4 597.4 133.95 596.75 134.5C596.15 135 596 136.2 596.1 140.2L596.2 145.25L596.35 140.5C596.5 137.2 596.75 135.55 597.3 134.95C597.9 134.25 598.05 131.5 598 116.8C598 106.9 597.8 99.05 597.5 98.55C596.95 97.5 594.4 97.7 593.45 98.8C593.05 99.3 592.85 104.7 592.8 117.05C592.75 133.15 592.8 134.65 593.65 135.35C594.35 136 594.5 137.1 594.6 140.95L594.7 145.75L594.85 140.55C595 136.45 594.9 135.2 594.25 134.5ZM346.55 134.9C346.7 104.5 346.65 102.05 345.8 101.25C345.35 100.8 345 100.15 344.95 99.85C344.95 99.5 344.75 99.7 344.5 100.25C344 101.4 343.85 143.65 344.35 144.15C344.5 144.35 345.1 144.5 345.6 144.5C346.45 144.5 346.5 143.85 346.55 134.9ZM596.5 116.7C596.5 100.85 596.5 100.5 595.5 100.5C594.5 100.5 594.5 100.85 594.5 116.9C594.5 125.95 594.65 133.5 594.85 133.65C595 133.85 595.45 133.75 595.85 133.45C596.35 133 596.5 129.6 596.5 116.7ZM164.5 113.65C164.5 97.35 164.5 97 163.5 97C162.5 97 162.5 97.35 162.5 114.25C162.5 131.4 162.5 131.5 163.5 130.9C164.45 130.3 164.5 129.7 164.5 113.65ZM272.5 116.2C272.5 101.85 272.5 101.5 271.5 101.5C270.5 101.5 270.5 101.85 270.5 115.75C270.5 126.5 270.65 130.2 271.15 130.7C271.45 131.1 271.9 131.3 272.15 131.15C272.35 131.05 272.5 124.3 272.5 116.2ZM460.9 127.9C461.6 127.2 461.75 90.7 461.05 89.55C460.8 89.2 460.35 89.05 460.05 89.2C459.4 89.6 459.25 128.5 459.9 128.5C460.1 128.5 460.55 128.25 460.9 127.9ZM26.75 126C27.25 125.45 27.5 125 27.3 125C27.1 125 26.5 125.45 25.9 126C25.3 126.55 25.05 127 25.35 127C25.6 127 26.25 126.55 26.75 126ZM30.8 125.9C30.25 124.1 30.15 122.8 30.55 122.25C30.75 121.95 30.75 121.4 30.55 121.05C30.25 120.6 30 121.05 29.75 122.3C29.6 123.35 28.95 124.85 28.4 125.6L27.45 127H29.25C30.95 127 31.1 126.9 30.8 125.9ZM83.85 105.9C83.8 101.95 83.7 105.15 83.7 113C83.7 120.85 83.8 124.05 83.85 120.15C83.95 116.2 83.95 109.8 83.85 105.9ZM323.35 123.4C323.25 122.75 323.15 123.15 323.15 124.25C323.1 125.35 323.2 125.85 323.35 125.4C323.45 124.9 323.45 124 323.35 123.4ZM83.4 96.45C83.05 96.2 82.55 96 82.25 96C82 96.05 82.15 96.25 82.65 96.55C83.1 96.8 83.55 97.45 83.55 97.9C83.6 98.6 83.65 98.6 83.85 97.8C84 97.3 83.8 96.7 83.4 96.45ZM31 85.4C31 85.15 30.65 84.85 30.25 84.7C29.85 84.5 29.5 84 29.5 83.55C29.5 82.95 29.6 82.9 29.95 83.4C30.25 83.95 30.4 83.85 30.6 83.1C30.75 82.55 30.7 81.8 30.45 81.45C30.1 80.9 30 80.95 30 81.6C30 82.2 29.5 82.5 28.15 82.6C26.3 82.75 26.25 82.75 27.45 83.4C28.1 83.8 28.45 83.85 28.3 83.55C28.1 83.25 28.15 83 28.45 83C28.7 83 29.05 83.65 29.25 84.4C29.5 85.65 31 86.5 31 85.4ZM609.1 55.05C610.9 54.8 613.25 54.2 614.3 53.7C617.05 52.4 619.9 49.35 621.35 46.15C622.45 43.75 622.6 42.9 622.4 39.55C621.95 31.85 617.35 26.85 609.45 25.5C604.85 24.7 553.45 25.05 550.9 25.9C547.65 27 544.45 29.6 542.55 32.7C540.85 35.55 540.75 35.85 540.75 40.2C540.75 43.95 540.95 45.1 541.9 46.9C544.35 51.55 548.5 54.4 553.5 54.95C558.1 55.5 605.5 55.55 609.1 55.05ZM48.35 46.65C48.55 46.15 48.85 46.15 49.65 46.55C51.15 47.4 63.1 47.25 64.45 46.4C65.15 46 65.65 45.95 65.9 46.25C66.5 47.1 73.55 47.5 75.25 46.75C76.7 46.15 77.15 46.15 77.85 46.65C78.85 47.4 89.25 47.3 90.45 46.55C90.85 46.3 91.15 45.35 91.15 44.4C91.15 42.05 90.5 37.8 90.1 37.45C89.9 37.25 87.3 37 84.35 36.85C79.1 36.6 78.9 36.65 77.7 37.85C77.05 38.5 76.5 39 76.45 38.9C76.45 38.8 76.15 37.75 75.85 36.5C75.3 34.45 75.1 34.25 73.65 34.1C72.7 34 72 34.15 72 34.45C72 34.8 70.9 34.95 69.15 34.85C66.65 34.75 66.25 34.9 66.05 35.75C65.7 36.95 64.8 37.2 63 36.55C62.1 36.25 61.45 36.25 61.1 36.6C60.4 37.3 58.25 36.9 58.2 36C58.1 34.2 57.95 34 56.8 34C55.05 34 54 34.5 54 35.3C54 35.7 53.55 36 53 36C52.45 36 52 36.1 52 36.2C52 36.3 51.85 36.75 51.7 37.15C51.5 37.7 51.8 37.95 52.55 38.1C54.15 38.3 54.3 39.4 52.85 39.8C51.8 40.05 51.6 40.35 51.75 41.65C51.85 42.55 51.95 43.5 51.95 43.85C52 44.15 52.45 44.6 53 44.75C54.7 45.3 54.2 46.5 52.3 46.5C50.2 46.5 49.8 45.95 49.95 43.2C50 41.55 49.8 40.8 48.95 39.95C48 39 47.95 38.8 48.6 38.3C49.05 38 49.45 37.3 49.55 36.75C49.65 36.25 50.3 35.65 51 35.5C51.75 35.3 52 35.05 51.65 34.85C50.8 34.35 49.65 34.9 48.75 36.3C48.15 37.25 47.7 37.45 46.9 37.2C46.3 37.05 44.6 36.9 43.1 36.95C40.5 37 38.6 36.4 37.9 35.3C37.7 35 36.7 34.7 35.65 34.7C34.6 34.65 32.6 34.45 31.15 34.25C28.8 33.9 28.5 34 27.15 35.25L25.75 36.6L27.45 35.75C28.9 35.05 29.45 35 31.1 35.45C32.5 35.9 33 36.3 32.9 36.9C32.7 37.75 32.15 37.85 30.15 37.25C28.65 36.8 27.95 38.35 29.2 39.25C29.85 39.75 29.9 39.95 29.4 40.15C29.05 40.3 29.5 40.45 30.4 40.45C31.65 40.5 32 40.7 32 41.5C32 42.05 32.35 42.65 32.75 42.8C33.85 43.25 33.65 44.85 32.4 45.7C30.1 47.3 24.95 46.2 25.65 44.25C26 43.4 27.5 43.2 27.5 44.05C27.5 44.35 28.2 44.5 29.1 44.4C31.55 44.15 31.45 42.85 29 41.75C26.8 40.75 26 39.75 26 37.95C26 37.05 25.85 36.95 25.4 37.4C24.95 37.85 25 38.45 25.5 40.05C26.05 41.65 26.05 42.3 25.6 43.05C24.6 44.6 24.9 46 26.3 46.5C27.95 47.15 31.85 47.15 32.25 46.5C32.65 45.9 35.15 45.85 35.8 46.45C36.5 47.1 37.7 47.25 43.2 47.25C46.7 47.25 48.25 47.05 48.35 46.65Z" fill="#F5F5FC"/>
</svg>
