<svg width="49" height="36" viewBox="0 0 49 36" fill="none" xmlns="http://www.w3.org/2000/svg">
<path d="M3.84998 34.7C3.09998 34.3 2.25 33.4 2 32.7C1.7 32 1.5 27.3 1.5 22.2C1.5 16.4 1.3 13 1 13C0.75 13 0.5 12.1 0.5 11C0.5 9.34999 0.65 8.99999 1.5 8.99999C2.05 8.99999 2.5 8.8 2.5 8.6C2.5 8.35 3.4 7.84999 4.5 7.49999C5.6 7.14999 6.5 6.64999 6.5 6.39999C6.5 6.19999 6.95 5.99999 7.5 5.99999C8.05 5.99999 8.5 5.64999 8.5 5.24999C8.5 4.79999 8.89998 4.29999 9.34998 4.14999C9.79998 3.94999 10.55 3.44999 11.05 2.94999C12.75 1.24999 16.8 0.349999 21.65 0.599999C24.55 0.749999 26.25 1.04999 26.4 1.39999C26.5 1.74999 27.2 1.99999 28 1.99999C28.8 1.99999 29.75 2.34999 30.2 2.74999C30.6 3.14999 31.15 3.49999 31.45 3.49999C31.75 3.49999 32 3.94999 32 4.49999C32 5.24999 32.35 5.49999 33.45 5.49999C34.25 5.49999 35.25 5.84999 35.7 6.24999C36.1 6.64999 36.9 6.99999 37.45 6.99999C38.15 6.99999 38.5 7.29999 38.5 7.99999C38.5 9.79999 36.85 9.24999 29.4 4.89999C25.55 2.64999 21.5 1.84999 17.9 2.49999C15.25 3.04999 13.45 3.99999 8.09998 7.74999C6.34998 8.99999 4.40001 9.99999 3.70001 9.99999C2.85001 9.99999 2.5 10.25 2.5 11C2.5 11.85 2.70002 11.95 3.90002 11.7C5.95002 11.2 7.95 10.1 11.25 7.6C15.65 4.3 17.05 3.84999 21.6 4.14999C25.6 4.39999 26.4 4.75 32.45 8.55C34.9 10.1 35.5 10.25 38.95 10.25C42.15 10.25 43.05 10.05 44.6 8.99999C45.65 8.29999 46.5 7.44999 46.5 7.14999C46.5 6.24999 47.35 6.35 47.7 7.3C48.25 8.75 48.05 30.75 47.45 32.45C46.4 35.45 46.1 35.5 24.65 35.5C8.30002 35.45 5.04998 35.35 3.84998 34.7Z" fill="#FF6055"/>
</svg>


