<svg width="318" height="236" viewBox="0 0 318 236" fill="none" xmlns="http://www.w3.org/2000/svg">
<path d="M294 235.5C294 235.15 248.85 235 159.6 235C82.7 235 25 234.8 24.75 234.55C24.45 234.3 22.55 234 20.5 233.9C18.45 233.75 17.05 233.75 17.4 233.85C18.55 234.3 18 235 16.5 235C15.7 235 15 234.8 15 234.55C15 234.3 14.4 233.95 13.65 233.75C12.6 233.5 12.45 233.35 13 233C13.55 232.65 13.45 232.45 12.45 232.05C11.75 231.8 10.75 231.2 10.3 230.75C9.85001 230.25 9.3 230 9.15 230.2C9 230.35 9.35 230.95 10 231.5C10.65 232.05 11.05 232.65 10.85 232.8C10.7 232.95 10.05 232.65 9.45 232.05C8.8 231.45 7.8 231 7.15 231C6.45 231 6 230.7 6 230.25C6 229.8 5.45 228.85 4.75 228.1C4.05 227.35 3.50001 226.55 3.55 226.25C3.55 226 3.70001 226.05 3.85001 226.4C3.95001 226.7 4.5 227 5.05 227C5.65 227 6 227.35 6 227.9C6 229 6.95 230 7.95 230C8.55 230 8.50001 229.85 7.85001 229.1C7.35001 228.6 7 227.9 7 227.6C7 227.3 6.3 226.6 5.5 226C4.65 225.4 4 225.05 4 225.2C4 225.35 3.60001 225.1 3.10001 224.6C2.20001 223.7 0.949996 219.25 0.899996 216.75C0.899996 215.95 0.649996 215.1 0.399996 214.95C-0.200004 214.55 0.400005 206 1.05001 206C1.3 206 1.5 205.5 1.45 204.9C1.45 203.8 1.4 203.8 1 204.75C0.700002 205.45 0.550005 204.6 0.550005 202.1C0.500005 199.8 0.700002 198.55 1 198.75C1.3 198.9 1.5 198.7 1.5 198.25C1.5 197.8 1.25 197.6 0.949999 197.8C0.549999 198.05 0.449999 197.05 0.699999 194.2C1.05 189.7 1.05001 189.25 0.800005 185.5C0.700005 183.9 0.849999 182.45 1.2 182.05C1.6 181.5 1.6 181.4 1.15 181.65C0.699996 181.95 0.550002 179.85 0.500002 172.5C0.500002 166.55 0.700002 163 1 163C1.3 163 1.5 162.5 1.5 161.9C1.5 160.95 1.4 160.9 1 161.5C0.650002 162 0.550008 158.5 0.600008 151.15C0.650008 139.6 0.850002 138.8 2.75 140.2C3.45 140.7 3.55 141.7 3.4 147.9C3.3 151.8 3.35 155 3.55 155C3.70001 155 6.45 153 9.7 150.5C15.15 146.4 17.5 145.15 17.5 146.5C17.5 146.8 18.4 147 19.45 147C20.55 147 21.6 147.25 21.75 147.5C21.9 147.8 22.95 148 24.05 148C25.1 148 26 148.2 26 148.5C26 148.75 27.65 149 29.65 149.1C33.15 149.25 33.25 149.3 33.05 150.5C33 151.2 32.65 151.9 32.3 152.15C31.9 152.4 31.95 152.65 32.5 153.05C33.05 153.45 33.1 153.65 32.65 153.85C31.9 154.15 31.8 156 32.5 156C32.8 156 33 155.55 33 155C33 154.35 33.35 154 34 154C34.55 154 35 154.25 35 154.5C35 154.8 35.25 155 35.5 155C35.8 155 36 154.55 36 153.95C36 153.25 36.25 153 36.75 153.15C37.7 153.55 38.35 152.5 37.5 152C37.15 151.8 37 151.25 37.15 150.8C37.5 149.85 39.8 149.7 40.15 150.65C40.35 151.15 40.5 151.15 41.05 150.65C42.7 149.05 43.8 150.8 42.15 152.4C41.55 153 41.25 153.05 41.1 152.6C40.9 151.9 39 151.8 39 152.5C39 152.8 39.45 153 40 153C41.5 153 41.25 154.4 39.45 156.05L37.85 157.5L39.05 158.6C39.85 159.3 40.05 159.7 39.65 159.85C38.65 160.2 38.9 161.45 40.25 162.75C41.65 164.2 42 164.3 42 163.2C42 162.75 41.5 161.95 40.9 161.4C39.95 160.6 39.9 160.35 40.5 159.95C41.05 159.55 41.1 159.35 40.65 159.15C39.9 158.85 39.8 156.7 40.5 156.25C40.8 156.05 41 156.55 41 157.35C41 158.75 41.75 160 42.6 160C43.25 160 43.05 158.1 42.4 157.9C41.95 157.75 42 157.45 42.65 156.8C43.7 155.75 43.75 155.45 42.75 155.8C42.2 156 42 155.8 42 155C42 154.2 42.2 154 42.8 154.2C43.25 154.35 43.7 154.5 43.8 154.5C43.9 154.5 44 154.85 44 155.25C44 155.65 44.25 156 44.5 156C45.4 156 45.05 154.4 43.95 153.45C43.15 152.75 43.05 152.4 43.45 151.55C43.8 150.9 43.85 150.45 43.5 150.25C42.5 149.65 43 148.9 44.3 149.15C45.15 149.3 45.7 149.15 45.85 148.65C46 148.25 46.55 148 47.05 148.15C47.65 148.3 48 148.15 48 147.65C48 147.15 48.3 147.05 49 147.25C49.6 147.45 50 147.35 50 147C50 146.7 51.35 145.2 53 143.65C54.65 142.05 56 140.5 56 140.15C56 139.8 56.25 139.5 56.5 139.5C56.8 139.5 57 139.3 57 139.1C57 137.95 55.25 138.95 53.45 141.1C52.3 142.4 50.75 143.95 50 144.5L48.55 145.5L48.7 144.25C48.8 143.55 50 141.75 51.55 140.1C53.05 138.55 55.35 135.6 56.7 133.55C58.7 130.55 59.25 130 59.5 130.75C59.8 131.65 59.85 131.65 60.4 130.75C60.7 130.2 61.05 129.9 61.2 130.05C61.5 130.3 58.5 134.9 56.9 136.7C55.75 137.95 55.75 138.55 56.9 138.15C57.95 137.75 59 136.75 59 136.15C59 135.9 59.45 135.2 60.05 134.55C60.6 133.95 61.35 132.9 61.7 132.3C62.3 131.15 62.35 131.15 64 131.95C64.95 132.45 66.75 133.4 68 134.1C78.85 140.3 78.5 140.15 82.25 140.4C85.15 140.6 86.15 140.45 87.8 139.6C90.05 138.45 96.3 132.1 99.45 127.9C101.3 125.3 103 124.15 103 125.5C103 125.8 103.45 126 104 126C104.55 126 105 126.25 105 126.5C105 126.8 105.45 127 106 127C106.55 127 107 127.25 107 127.5C107 127.8 107.45 128 108 128C108.55 128 109 128.2 109 128.4C109 128.6 110.05 129.1 111.4 129.45C112.7 129.85 114 130.3 114.25 130.5C114.95 131.05 122 131.35 122 130.9C122 130.7 122.75 130.55 123.65 130.55C124.8 130.6 124.95 130.7 124.15 130.85C123.5 130.95 123 131.25 123 131.45C123 132.1 125.2 131.8 125.75 131.1C126.05 130.75 126.95 130.55 127.9 130.7C128.8 130.8 129.65 130.7 129.8 130.45C129.95 130.2 130.5 130 131.05 130C131.55 130 132 129.8 132 129.5C132 129.25 132.35 129 132.75 129C133.7 129 138.5 124.25 139.45 122.35C139.85 121.6 140.35 121 140.6 121C140.8 121 141 120.55 141 120C141 119.45 141.35 119 141.8 119C142.2 119 142.4 118.8 142.25 118.5C141.6 117.45 140.55 118.1 139.25 120.3C136.95 124.25 134.85 126.45 131.5 128.4C129.35 129.7 128.9 129.75 122.75 129.75C117.7 129.75 115.6 129.55 113.35 128.8C111.25 128.1 110.65 127.7 111.1 127.4C111.55 127.05 111.45 127 110.75 127.25C110.1 127.45 108.5 126.9 106.05 125.7C104.05 124.65 102.7 123.7 103.05 123.55C103.45 123.45 103.9 123.1 104.1 122.85C104.3 122.5 104.85 122.6 105.6 123.1C108.8 125.2 114.45 127.2 118.95 127.75C123.8 128.4 128.2 128.2 127.7 127.4C127.55 127.2 127.6 127 127.85 127.05C129.45 127.35 130.75 126.65 133.25 124.25C134.85 122.75 135.95 121.5 135.7 121.5C135.45 121.5 135.65 121.25 136.15 120.95C137.3 120.25 138.65 117.65 138 117.25C137.7 117.1 137.25 117.45 137 118.1C136.15 120.05 133.25 123.7 132.05 124.3C131.4 124.65 130.65 125.15 130.35 125.45C130.05 125.75 129.2 126 128.5 126C127.8 126 126.95 126.25 126.7 126.5C125.95 127.25 120.2 127.3 119.35 126.6C118.95 126.25 117.75 126.05 116.6 126.1C115.45 126.15 114.2 125.9 113.8 125.55C113.4 125.2 112.85 125.05 112.6 125.2C112.35 125.35 110.4 124.6 108.3 123.55L104.45 121.65L108.15 118.2C112.3 114.3 115.8 112.4 120.4 111.45C123.1 110.9 124.05 110.9 127.65 111.65C132.85 112.75 137.9 114.9 138.3 116.2C138.6 117.1 138.7 117.1 139.25 116.35C139.55 115.9 140 115.65 140.15 115.85C140.35 116 140.5 115.55 140.5 114.8C140.5 114.1 140.85 113.35 141.25 113.2C142.7 112.65 142.9 113.3 142 115.25C141.35 116.65 141.25 117.3 141.65 117.4C142 117.5 143 117.95 143.95 118.35C151.8 121.9 156.85 122.4 165.45 120.5C176.7 118.05 181.35 120.15 191.75 132.25C198.3 139.85 201.7 142.55 206.5 144C212.25 145.7 216 145.05 218.45 141.9C220.55 139.3 221.4 135.65 222.5 124.8C223.95 110.65 227.55 102.9 234.2 99.55C237.5 97.95 240.4 97.65 250.1 97.9C263.6 98.25 269.5 96.85 281.75 90.5C289.2 86.65 292.5 85.5 296.5 85.5C301.35 85.5 307.7 87.7 312.6 91.1C313.3 91.6 314.15 92 314.45 92C314.85 92 315 79 315 46C315 20.7 315.15 0 315.4 0C315.6 0 315.8 1.14999 315.85 2.54999C315.9 3.94999 316.15 5.35002 316.4 5.65002C316.7 6.00002 317.05 7.25 317.2 8.5C318.1 14.8 318.1 15 317.4 15C316.9 15 316.75 14.3 316.8 12.5C316.8 11.15 316.65 9.75002 316.45 9.40002C316 8.65002 316.2 16.9 316.7 18C317.05 18.85 316.75 208.05 316.35 214.15C316.25 216.25 316.25 218 316.45 218C316.6 218 316.8 216.75 316.8 215.2C316.85 213.65 317.15 212.15 317.45 211.85C317.85 211.45 318 211.9 318 213.55C317.95 215.8 317 220.2 316.35 220.8C316.15 221 316 221.8 316 222.6C316 223.6 315.75 224 315.15 224.05C314.65 224.05 313.75 224.7 313.1 225.55C312.1 226.75 312.05 227 312.75 227C313.2 227 313.7 226.55 313.85 226C314 225.45 314.3 225 314.55 225C315.25 225 315.05 226.3 314.25 227C313.85 227.3 313.4 228.05 313.2 228.65C312.8 229.95 311.8 231 310.9 231C310.5 231 309.9 231.45 309.5 232C308.75 233.05 307 233.4 307 232.5C307 232.25 307.45 232 308 232C308.7 232 309 231.65 309 230.95C309 229.8 309.05 229.8 306.45 231.95C305.95 232.35 305.7 232.95 305.85 233.3C306.05 233.8 305.65 234 304.6 234C303.75 234 303 233.7 302.85 233.4C302.75 233 302.45 232.95 302.2 233.2C301.95 233.45 302 233.75 302.4 233.85C303.55 234.3 303 235 301.55 235C300.7 235 299.9 235.25 299.75 235.5C299.6 235.8 298.2 236 296.7 236C295.2 236 294 235.8 294 235.5ZM300.4 234.15C301.2 233.35 301.2 233.35 300.35 233.65C299.85 233.85 298.2 234 296.7 234C295.2 234 294 234.25 294 234.5C294 235.4 299.5 235.1 300.4 234.15ZM311.85 229.25C312.25 228.1 311.65 227.75 310.75 228.65C309.8 229.65 309.8 230 310.75 230C311.2 230 311.65 229.65 311.85 229.25ZM309 225.5C312.15 223.7 314.35 220.65 314.75 217.4C314.95 215.95 314.95 203.5 314.75 189.75C314.6 176 314.45 164.4 314.45 164C314.45 162.5 313.95 161 313.5 161C312.75 161 312.9 162.9 313.6 163.1C314.05 163.25 314 163.55 313.4 164.15C312.35 165.2 311.65 165.2 310.65 164.2C309.95 163.55 309.95 163.35 310.55 162.95C311.15 162.55 311.15 162.45 310.5 162C309.85 161.55 309.85 161.45 310.45 161.05C311.05 160.65 311 160.4 309.95 159.6C309.3 159 308.95 158.4 309.2 158.15C309.45 157.95 309.75 158.05 309.85 158.4C310 158.7 310.75 159 311.55 159C312.35 159 313 159.25 313 159.5C313 159.8 313.25 160 313.5 160C313.8 160 314 159.55 314 159C314 158.45 313.8 158 313.5 158C312.75 158 312.9 156.55 313.75 155.7C314.15 155.25 314.5 154.7 314.5 154.45C314.5 154.2 314.15 154 313.75 154C313.35 154 313 154.35 313 154.75C313 155.7 310.55 158.25 310.1 157.8C309.95 157.6 310.1 157.25 310.5 157C310.9 156.75 311.05 156.4 310.85 156.2C310.65 156 310.05 156.35 309.5 157.05C308.65 158 308.35 158.1 308 157.5C307.75 157.1 307.4 156.95 307.2 157.1C307 157.3 307.55 158.15 308.45 158.95C310.25 160.65 310.35 161 309.05 161C308.5 161 308 161.3 307.9 161.6C307.75 162.05 307.4 161.95 306.7 161.3C306.05 160.6 305.95 160.25 306.4 160.1C307.2 159.85 307.2 158.15 306.4 157.9C305.55 157.6 307.1 156 308.2 156C308.65 156 309 155.6 309 155C309 154.35 309.35 154 310 154C310.55 154 311 154.25 311 154.5C311 154.8 311.25 155 311.5 155C311.8 155 312 154.55 312 154C312 153.35 311.65 153 311 153C310.15 153 310 152.65 310 151C310 149.35 309.85 149 309.05 149C308.5 149 308 149.3 307.85 149.65C307.7 150.05 307.25 149.85 306.55 149C305.6 148 305.35 147.9 304.95 148.5C304.55 149.15 304.45 149.15 304.05 148.55C303.65 147.95 303.45 147.95 302.75 148.65C302 149.4 302 149.6 302.7 150.25C303.5 151.1 306 151.3 306 150.5C306 150.25 306.25 150 306.5 150C307.3 150 307.1 151.5 306.15 152.4C305.55 153 305.25 153.05 305.1 152.6C304.9 151.9 303 151.8 303 152.5C303 152.8 303.45 153 304 153C305.15 153 305.4 154.7 304.4 155.2C303.9 155.45 303.9 155.55 304.4 155.8C304.7 155.95 305 156.7 305 157.5C305 158.3 305.3 159.05 305.65 159.15C306.1 159.35 306.05 159.55 305.5 159.95C304.9 160.35 304.95 160.6 305.9 161.4C306.5 161.95 307 162.75 307 163.2C307 163.65 307.25 164 307.5 164C307.8 164 308 163.55 308 163C308 162.35 308.35 162 309 162C310.1 162 310.35 162.75 309.4 163.15C308.9 163.35 308.95 163.55 309.5 163.95C309.9 164.2 310.05 164.6 309.85 164.85C309.6 165.05 309.25 164.9 308.95 164.5C308.55 163.85 308.45 163.85 308 164.5C307.55 165.15 307.45 165.15 307 164.5C306.55 163.85 306.45 163.85 305.95 164.5C305.55 165.05 305.35 165.1 305.15 164.65C305.05 164.3 304.5 164 304 164C303.5 164 303 163.7 302.85 163.4C302.75 163.05 302.45 162.9 302.25 163.1C302 163.35 302.35 163.95 303 164.5C303.65 165.05 304.05 165.65 303.85 165.8C303.3 166.35 301 163.55 301 162.25C301 161.55 300.8 161 300.5 161C300.25 161 300 161.9 300 163C300 165.2 299.8 165.4 298.65 164.2C297.95 163.55 297.95 163.35 298.55 162.95C299.15 162.55 299.15 162.45 298.5 162C297.85 161.55 297.85 161.45 298.5 160.95C299.05 160.55 299.1 160.35 298.65 160.15C297.75 159.8 297.85 159 298.8 159C299.75 159 301 157.8 301 156.9C301 156.5 301.45 155.9 302 155.5C302.55 155.1 303 154.6 303 154.4C303 154.2 302.55 154 302 154C301.4 154 301 154.35 301 154.8C301 155.2 300.65 155.95 300.2 156.35C299.55 157.05 299.35 157.05 299 156.45C298.65 155.9 298.35 156.05 297.5 157C296.65 158 296.35 158.1 296 157.5C295.75 157.1 295.4 156.95 295.2 157.1C295 157.3 295.55 158.15 296.45 158.95C298.25 160.65 298.35 161 297.05 161C296.5 161 296 161.3 295.9 161.6C295.75 162.05 295.4 161.95 294.7 161.3C294.05 160.6 293.95 160.25 294.4 160.1C295.15 159.85 295.2 158 294.45 158C294.05 158 294.1 157.7 294.55 157.15C295.1 156.5 295.1 156.3 294.65 156.15C293.55 155.75 293.9 154 295 154C295.65 154 296 154.35 296 155C296 155.55 296.25 156 296.5 156C296.8 156 297 155.55 297 155C297 154.35 297.35 154 298 154C298.55 154 299 154.25 299 154.5C299 154.8 299.25 155 299.5 155C299.8 155 300 154.55 300 154C300 153.35 300.35 153 301 153C301.55 153 302 152.8 302 152.5C302 152.25 301.8 152 301.5 152C301.25 152 301 151.35 301 150.5C301 149.7 300.8 149 300.5 149C300.25 149 300 149.9 300 151C300 152.65 299.85 153 299 153C298.15 153 298 152.65 298 151C298 149.35 297.85 149 297.05 149C296.5 149 295.95 149.3 295.8 149.65C295.65 150.05 295.2 149.85 294.5 149.05C293.6 148 293.35 147.95 292.95 148.55C292.55 149.15 292.45 149.15 292.05 148.55C291.65 147.95 291.45 147.95 290.75 148.65C290 149.4 290 149.6 290.7 150.25C291.5 151.1 294 151.3 294 150.5C294 150.25 294.25 150 294.5 150C295.3 150 295.1 151.5 294.15 152.4C293.55 153 293.25 153.05 293.1 152.6C292.9 151.9 291 151.8 291 152.5C291 152.8 291.45 153 292 153C293.15 153 293.4 154.7 292.4 155.2C291.9 155.45 291.9 155.55 292.4 155.8C292.7 155.95 293 156.7 293 157.5C293 158.3 293.3 159.05 293.65 159.15C294.1 159.35 294.05 159.55 293.5 159.95C292.9 160.35 292.95 160.6 293.9 161.4C294.5 161.95 295 162.75 295 163.2C295 163.65 295.25 164 295.5 164C295.8 164 296 163.55 296 163C296 162.35 296.35 162 297 162C298.1 162 298.35 162.75 297.35 163.15C296.9 163.35 296.95 163.55 297.5 163.95C297.9 164.2 298.05 164.6 297.85 164.85C297.6 165.05 297.25 164.9 296.95 164.5C296.55 163.85 296.45 163.85 296 164.5C295.55 165.15 295.45 165.15 295 164.5C294.55 163.85 294.45 163.85 293.95 164.5C293.55 165.05 293.35 165.1 293.15 164.65C293.05 164.3 292.5 164 292 164C291.5 164 291 163.7 290.85 163.4C290.75 163.05 290.45 162.9 290.25 163.1C290 163.35 290.35 163.95 291 164.5C291.65 165.05 292.05 165.65 291.85 165.8C291.3 166.35 289 163.55 289 162.25C289 161.55 288.8 161 288.5 161C288.25 161 288 161.9 288 163C288 165.2 287.8 165.4 286.65 164.2C285.95 163.55 285.95 163.35 286.55 162.95C287.15 162.55 287.15 162.45 286.5 162C285.85 161.55 285.85 161.45 286.5 160.95C287.05 160.55 287.1 160.35 286.65 160.15C285.7 159.8 285.85 159 286.9 159C288 159 289 158.05 289 157C289 156.6 289.45 155.9 290 155.5C291.3 154.6 291.3 154 290 154C289.45 154 289 154.35 289 154.75C289 155.7 286.55 158.25 286.1 157.8C285.95 157.6 286.1 157.25 286.5 157C286.9 156.75 287.05 156.4 286.85 156.2C286.65 156 286.05 156.35 285.5 157.05C284.65 158 284.35 158.1 284 157.5C283.75 157.1 283.4 156.95 283.2 157.15C283 157.35 283.55 158.1 284.4 158.85C286.25 160.35 286.4 161 285.05 161C284.5 161 284 161.3 283.9 161.6C283.75 162.05 283.4 161.95 282.7 161.3C282.05 160.6 281.95 160.25 282.4 160.1C283.2 159.85 283.2 158.15 282.4 157.9C281.95 157.75 282 157.45 282.65 156.8C283.7 155.75 283.75 155.45 282.75 155.8C282.25 156 282 155.8 282 155.05C282 154.35 282.3 154 283 154C284.1 154 284.35 153.25 283.4 152.8C282.9 152.55 282.9 152.45 283.4 152.2C283.7 152.05 284 151.5 284 150.95C284 150.45 284.25 150 284.5 150C285.2 150 285.1 151.9 284.4 152.15C283.95 152.3 284.15 152.7 284.95 153.4C285.6 154 286.35 154.35 286.55 154.2C286.8 154.05 287 154.2 287 154.45C287 154.75 287.25 155 287.5 155C287.8 155 288 154.55 288 154C288 153.35 288.35 153 289 153C289.55 153 290 152.8 290 152.5C290 152.25 289.8 152 289.5 152C289.25 152 289 151.35 289 150.5C289 149.7 288.8 149 288.5 149C288.25 149 288 149.9 288 151C288 152.65 287.85 153 287 153C286.15 153 286 152.65 286 151C286 149.35 285.85 149 285.05 149C284.5 149 284 149.3 283.85 149.65C283.7 150.05 283.3 149.85 282.55 149.05L281.5 147.85L280.55 148.9C280.05 149.5 279.5 150 279.3 150C278.75 150 279 148.6 279.65 148.35C280 148.15 280.05 148.05 279.7 148.05C279.4 148 278.85 148.35 278.5 148.75C278 149.3 278.05 149.65 278.65 150.25C279.5 151.1 282 151.3 282 150.5C282 150.25 282.25 150 282.5 150C283.3 150 283.1 151.5 282.15 152.4C281.55 153 281.25 153.05 281.1 152.6C280.9 151.9 279 151.8 279 152.5C279 152.8 279.45 153 280 153C281.5 153 281.25 154.4 279.45 156.05L277.85 157.5L279.05 158.6C279.85 159.3 280.05 159.7 279.65 159.85C278.6 160.25 278.9 161.75 280.25 162.9C281.75 164.2 282 164.25 282 163.2C282 162.75 281.5 161.95 280.9 161.4C279.95 160.6 279.9 160.35 280.5 159.95C281.05 159.55 281.1 159.35 280.65 159.15C279.9 158.85 279.8 156.7 280.5 156.25C280.8 156.05 281 156.55 281 157.45C281 158.25 281.3 159.05 281.65 159.15C282.1 159.35 282.05 159.55 281.5 159.95C280.9 160.35 280.95 160.6 281.9 161.4C282.5 161.95 283 162.75 283 163.2C283 163.65 283.25 164 283.5 164C283.8 164 284 163.55 284 163C284 162.35 284.35 162 285 162C286.1 162 286.35 162.75 285.4 163.15C284.9 163.35 284.95 163.55 285.5 163.95C285.9 164.2 286.05 164.6 285.85 164.85C285.6 165.05 285.25 164.9 284.95 164.5C284.55 163.85 284.45 163.85 284 164.5C283.55 165.15 283.45 165.15 283 164.5C282.55 163.85 282.45 163.85 281.95 164.5C281.55 165.05 281.35 165.1 281.15 164.65C281.05 164.3 280.5 164 280 164C279.5 164 279 163.7 278.85 163.4C278.75 163.05 278.45 162.9 278.25 163.1C278 163.35 278.35 163.95 279 164.5C279.65 165.05 280.05 165.65 279.85 165.8C279.3 166.35 277 163.55 277 162.25C277 161.55 276.8 161 276.5 161C276.25 161 276 161.8 276 162.8C276 164.3 275.85 164.55 275.15 164.3C274.7 164.1 274.15 164.25 273.9 164.6C273.6 165.1 273.4 165.1 273 164.5C272.55 163.85 272.45 163.85 272 164.5C271.55 165.15 271.45 165.15 271 164.5C270.55 163.85 270.45 163.85 269.95 164.5C269.55 165.05 269.35 165.1 269.15 164.65C269.05 164.3 268.5 164 268 164C267.5 164 267 163.7 266.85 163.4C266.75 163.05 266.45 162.9 266.25 163.1C266 163.35 266.35 163.95 267 164.5C267.65 165.05 268.05 165.65 267.85 165.8C267.3 166.35 265 163.55 265 162.25C265 161.55 264.8 161 264.5 161C264.25 161 264 161.9 264 163C264 165.2 263.8 165.4 262.65 164.2C262 163.55 261.95 163.35 262.5 163C263.05 162.65 263 162.45 262.35 161.8C261.4 160.85 260.15 160.75 259.85 161.65C259.7 162.05 259.3 161.8 258.6 161C258.05 160.3 257.4 159.9 257.2 160.1C257 160.35 257.35 160.9 257.9 161.45C258.5 161.95 259 162.75 259 163.2C259 163.65 259.25 164 259.5 164C259.8 164 260 163.55 260 163C260 162.35 260.35 162 261 162C262.1 162 262.35 162.75 261.4 163.15C260.9 163.35 260.95 163.55 261.5 163.95C261.9 164.2 262.05 164.6 261.85 164.85C261.6 165.05 261.25 164.9 260.95 164.5C260.55 163.85 260.45 163.85 260 164.5C259.55 165.15 259.45 165.15 259 164.5C258.55 163.85 258.45 163.85 258 164.5C257.65 165 257.4 165.1 257.15 164.7C256.9 164.4 256.2 164.05 255.6 163.85C254.45 163.6 254.45 163.6 255.3 164.55C256.65 166 255.75 166.3 254.3 164.85C253.6 164.1 253 162.95 253 162.25C253 161.55 252.8 161 252.5 161C252.25 161 252 161.9 252 163C252 165.2 251.8 165.4 250.65 164.2C249.95 163.55 249.95 163.35 250.55 162.95C251.15 162.55 251.15 162.45 250.5 162C249.85 161.55 249.85 161.45 250.45 161.05C251.05 160.65 251 160.4 249.95 159.6C249.3 159 248.95 158.4 249.2 158.15C249.45 157.95 249.75 158.05 249.85 158.4C250.35 159.75 253 158.5 253 156.9C253 156.5 253.45 155.9 254 155.5C254.55 155.1 255 154.6 255 154.4C255 154.2 254.55 154 254 154C253.4 154 253 154.35 253 154.8C253 155.2 252.65 155.95 252.2 156.35C251.55 157.05 251.35 157.05 251 156.45C250.65 155.9 250.35 156.05 249.5 157C248.65 158 248.35 158.1 248 157.5C247.75 157.1 247.4 156.95 247.2 157.15C247 157.35 247.55 158.1 248.4 158.85C250.25 160.35 250.4 161 249.05 161C248.5 161 248 161.3 247.9 161.6C247.75 162.05 247.4 161.95 246.7 161.3C246.05 160.6 245.95 160.25 246.4 160.1C247.2 159.85 247.2 158.15 246.35 157.85C245.9 157.65 245.95 157.45 246.5 157C247.05 156.55 247.1 156.35 246.65 156.15C245.6 155.75 245.9 154 247 154C247.65 154 248 154.35 248 155C248 155.55 248.25 156 248.5 156C248.8 156 249 155.55 249 155C249 154.35 249.35 154 250 154C250.55 154 251 154.25 251 154.5C251 154.8 251.25 155 251.5 155C251.8 155 252 154.55 252 154C252 153.35 252.35 153 253 153C253.55 153 254 152.8 254 152.5C254 152.25 253.8 152 253.5 152C253.25 152 253 151.35 253 150.5C253 149.7 252.8 149 252.5 149C252.25 149 252 149.9 252 151C252 152.65 251.85 153 251 153C250.15 153 250 152.65 250 151C250 149.35 249.85 149 249.05 149C248.5 149 248 149.3 247.85 149.65C247.7 150.05 247.25 149.85 246.55 149C245.6 148 245.35 147.9 244.95 148.5C244.55 149.15 244.45 149.15 244.05 148.55C243.65 147.95 243.45 147.95 242.75 148.65C242 149.4 242 149.6 242.7 150.25C243.5 151.1 246 151.3 246 150.5C246 150.25 246.25 150 246.5 150C247.3 150 247.1 151.5 246.15 152.4C245.55 153 245.25 153.05 245.1 152.6C244.85 151.8 243.15 151.85 242.85 152.65C242.65 153.15 242.95 153.3 243.8 153.1C244.75 152.95 245 153.1 245 153.9C245 154.45 244.7 155.05 244.4 155.2C243.9 155.45 243.9 155.55 244.4 155.8C244.7 155.95 245 156.7 245 157.5C245 158.3 245.3 159.05 245.65 159.15C246.1 159.35 246.05 159.55 245.5 159.95C244.9 160.35 244.95 160.6 245.9 161.4C246.5 161.95 247 162.75 247 163.2C247 163.65 247.25 164 247.5 164C247.8 164 248 163.55 248 163C248 162.35 248.35 162 249 162C250.1 162 250.35 162.75 249.4 163.15C248.9 163.35 248.95 163.55 249.5 163.95C249.9 164.2 250.05 164.6 249.85 164.85C249.6 165.05 249.25 164.9 248.95 164.5C248.55 163.85 248.45 163.85 248 164.5C247.55 165.15 247.45 165.15 247 164.5C246.55 163.85 246.45 163.85 245.95 164.5C245.55 165.05 245.35 165.1 245.15 164.65C245.05 164.3 244.5 164 244 164C243.5 164 243 163.7 242.85 163.4C242.75 163.05 242.45 162.9 242.25 163.1C242 163.35 242.35 163.95 243 164.5C243.65 165.05 244 165.65 243.85 165.85C243.3 166.35 241 163.35 241 162.15C241 161.5 240.8 161 240.5 161C240.25 161 240 161.9 240 163C240 165.2 239.8 165.4 238.65 164.2C237.95 163.55 237.95 163.35 238.55 162.95C239.15 162.55 239.15 162.45 238.5 162C237.85 161.55 237.85 161.45 238.5 160.95C239.05 160.55 239.1 160.35 238.65 160.15C237.75 159.8 237.85 159 238.8 159C239.75 159 241 157.8 241 156.9C241 156.5 241.45 155.9 242 155.5C242.55 155.1 243 154.6 243 154.4C243 154.2 242.55 154 242 154C241.4 154 241 154.35 241 154.8C241 155.2 240.65 155.95 240.2 156.35C239.55 157.05 239.35 157.05 239 156.45C238.65 155.9 238.35 156.05 237.5 157C236.65 158 236.35 158.1 236 157.5C235.75 157.1 235.4 156.95 235.2 157.1C235 157.3 235.55 158.15 236.45 158.95C238.25 160.65 238.35 161 237.05 161C236.5 161 236 161.3 235.9 161.6C235.75 162.05 235.4 161.95 234.7 161.3C234.05 160.6 233.95 160.25 234.4 160.1C235.15 159.85 235.2 158 234.45 158C234.05 158 234.1 157.7 234.55 157.15C235.1 156.5 235.1 156.3 234.65 156.15C233.55 155.75 233.9 154 235 154C235.65 154 236 154.35 236 155C236 155.55 236.25 156 236.5 156C236.8 156 237 155.55 237 155C237 154.35 237.35 154 238 154C238.55 154 239 154.25 239 154.5C239 154.8 239.25 155 239.5 155C239.8 155 240 154.55 240 154C240 153.35 240.35 153 241 153C241.55 153 242 152.8 242 152.5C242 152.25 241.8 152 241.5 152C241.25 152 241 151.35 241 150.5C241 149.7 240.8 149 240.5 149C240.25 149 240 149.9 240 151C240 152.65 239.85 153 239 153C238.15 153 238 152.65 238 151C238 149.35 237.85 149 237.05 149C236.5 149 236 149.3 235.85 149.65C235.7 150.05 235.3 149.85 234.55 149.05L233.5 147.85L232.5 149C231.4 150.25 230.45 150 231.5 148.75C232.3 147.8 231.65 147.75 230.7 148.75C230 149.4 230 149.6 230.7 150.25C231.5 151.1 234 151.3 234 150.5C234 150.25 234.25 150 234.5 150C235.3 150 235.1 151.5 234.15 152.4C233.55 153 233.25 153.05 233.1 152.6C233 152.3 232.5 152 232 152C231.5 152 231 152.3 230.9 152.6C230.55 153.65 229 151.75 229 150.3C229 149.6 228.8 149 228.5 149C228.25 149 228 149.9 228 151C228 152.65 227.85 153 227 153C226.15 153 226 152.65 226 151C226 149.35 225.85 149 225.05 149C224.5 149 224 149.3 223.85 149.65C223.7 150.05 223.25 149.85 222.55 149C221.6 148 221.35 147.9 220.95 148.5C220.55 149.15 220.45 149.15 220.05 148.55C219.65 147.95 219.45 147.95 218.75 148.65C218 149.4 218 149.6 218.7 150.25C219.5 151.1 222 151.3 222 150.5C222 150.25 222.25 150 222.5 150C222.8 150 223 150.35 223 150.75C223 151.15 223.25 151.5 223.5 151.5C223.8 151.5 224 151.15 224 150.75C224 150.35 224.25 150 224.5 150C225.2 150 225.1 151.85 224.4 152.15C223.9 152.35 223.95 152.55 224.5 153C225.05 153.45 225.1 153.65 224.65 153.85C223.9 154.15 223.8 156 224.5 156C224.8 156 225 155.55 225 155C225 154.35 225.35 154 226 154C226.55 154 227 154.25 227 154.5C227 154.8 227.25 155 227.5 155C227.8 155 228 154.6 228 154.05C228 153.25 228.4 153.1 230.5 153.1C233.5 153.1 233.75 153.9 231.45 156.05L229.85 157.5L231.05 158.6C231.85 159.3 232.05 159.7 231.65 159.85C230.65 160.2 230.9 161.45 232.25 162.75C233.65 164.2 234 164.3 234 163.2C234 162.75 233.5 161.95 232.9 161.4C231.95 160.6 231.9 160.35 232.5 159.95C233.05 159.55 233.1 159.35 232.65 159.15C231.9 158.85 231.8 156.7 232.5 156.25C232.8 156.05 233 156.55 233 157.45C233 158.25 233.3 159.05 233.65 159.15C234.1 159.35 234.05 159.55 233.5 159.95C232.9 160.35 232.95 160.6 233.9 161.4C234.5 161.95 235 162.75 235 163.2C235 163.65 235.25 164 235.5 164C235.8 164 236 163.55 236 163C236 162.35 236.35 162 237 162C238.1 162 238.35 162.75 237.4 163.15C236.9 163.35 236.95 163.55 237.5 163.95C237.9 164.2 238.05 164.6 237.85 164.85C237.6 165.05 237.25 164.9 236.95 164.5C236.55 163.85 236.45 163.85 236 164.5C235.55 165.15 235.45 165.15 235 164.5C234.55 163.85 234.45 163.85 233.95 164.5C233.55 165.05 233.35 165.1 233.15 164.65C233.05 164.3 232.5 164 232 164C231.5 164 231 163.7 230.85 163.4C230.75 163.05 230.45 162.9 230.25 163.1C230.05 163.3 230.4 163.9 231.05 164.45C231.7 165 232.1 165.55 231.9 165.75C231.3 166.35 229 163.6 229 162.25C229 161.55 228.8 161 228.5 161C228.25 161 228 161.9 228 163C228 165.2 227.8 165.4 226.65 164.2C225.95 163.55 225.95 163.35 226.55 162.95C227.15 162.55 227.15 162.45 226.5 162C225.85 161.55 225.85 161.45 226.5 160.95C227.05 160.55 227.1 160.35 226.65 160.15C225.65 159.75 225.9 159 227 159C227.55 159 228 159.25 228 159.5C228 159.8 228.45 160 229 160C229.65 160 230 159.65 230 159C230 158.45 229.8 158 229.5 158C229.25 158 229 158.25 229 158.55C229 158.8 228.75 158.9 228.4 158.7C227.95 158.4 227.95 158.25 228.4 158.1C228.75 158 229 157.55 229 157.05C229 156.6 229.45 155.9 230 155.5C230.55 155.1 231 154.6 231 154.4C231 154.2 230.55 154 230 154C229.4 154 229 154.35 229 154.8C229 155.2 228.65 155.95 228.2 156.35C227.55 157.05 227.35 157.05 227 156.45C226.65 155.9 226.35 156.05 225.5 157C224.6 158.05 224.35 158.1 223.95 157.5C223.55 156.95 223.35 156.9 223.15 157.4C223.05 157.7 222.65 158 222.35 158C221.95 158 222 157.8 222.4 157.4C223.1 156.7 223.2 155.3 222.5 155.75C222.25 155.9 222 155.6 222 155.05C222 154.35 222.3 154 223 154C224.2 154 224.25 153.7 223.2 152.65C222.55 151.95 222.35 151.95 221.9 152.55C221.55 153.1 221.35 153.1 221.15 152.65C220.85 151.9 219.5 151.8 219.5 152.5C219.5 152.8 219.85 153 220.25 153C221.15 153 221.25 154.8 220.4 155.2C219.9 155.45 219.9 155.55 220.4 155.8C220.7 155.95 221 156.75 221 157.55C221 159.15 221.15 159.25 222.5 158.5C223.25 158.1 223.7 158.2 224.5 158.85C225.65 159.85 225.8 161 224.8 161C224.4 161 224 161.3 223.9 161.6C223.75 162.05 223.4 162 222.75 161.35C222 160.55 221.95 160.35 222.55 160C222.9 159.75 223.05 159.4 222.9 159.2C222.7 159.05 222.15 159.25 221.7 159.7C220.95 160.5 220.95 160.6 221.95 161.45C222.55 161.95 223 162.75 223 163.2C223 163.65 223.25 164 223.5 164C223.8 164 224 163.55 224 163C224 162.35 224.35 162 225 162C226.1 162 226.35 162.75 225.4 163.15C224.9 163.35 224.95 163.55 225.5 163.95C225.9 164.2 226.05 164.6 225.85 164.85C225.6 165.05 225.25 164.9 224.95 164.5C224.55 163.85 224.45 163.85 224 164.5C223.55 165.15 223.45 165.15 223 164.5C222.55 163.85 222.45 163.85 222 164.5C221.6 165.1 221.4 165.15 221.05 164.6C220.85 164.2 219.8 163.9 218.8 163.85C217.15 163.8 217 163.65 217 162.4C217 161.65 216.8 161 216.5 161C216.25 161 216 161.9 216 163C216 164.9 215.35 165.7 214.85 164.4C214.65 163.9 214.45 163.95 214.05 164.5C213.55 165.15 213.45 165.15 213 164.5C212.55 163.85 212.45 163.85 212 164.5C211.55 165.15 211.45 165.15 211 164.5C210.55 163.85 210.45 163.85 209.95 164.5C209.55 165.05 209.35 165.1 209.15 164.65C209.05 164.3 208.5 164 208 164C207.5 164 207 163.7 206.85 163.4C206.75 163.05 206.45 162.9 206.25 163.1C206 163.35 206.35 163.95 207 164.5C207.65 165.05 208.05 165.65 207.85 165.8C207.3 166.35 205 163.55 205 162.25C205 161.55 204.8 161 204.5 161C204.25 161 204 161.9 204 163C204 165.2 203.8 165.4 202.65 164.2C201.95 163.55 201.95 163.35 202.55 162.95C203.15 162.55 203.15 162.45 202.5 162C201.85 161.55 201.85 161.45 202.5 160.95C203.05 160.55 203.1 160.35 202.65 160.15C201.75 159.8 201.85 159 202.8 159C203.75 159 205 157.8 205 156.9C205 156.5 205.45 155.9 206 155.5C206.55 155.1 207 154.6 207 154.4C207 154.2 206.55 154 206 154C205.4 154 205 154.35 205 154.8C205 155.2 204.65 155.95 204.2 156.35C203.55 157.05 203.35 157.05 203 156.45C202.65 155.9 202.35 156.05 201.5 157C200.65 158 200.35 158.1 200 157.5C199.75 157.1 199.4 156.95 199.2 157.1C199 157.3 199.55 158.15 200.45 158.95C202.25 160.65 202.35 161 201.05 161C200.5 161 200 161.3 199.9 161.6C199.75 162.05 199.4 161.95 198.7 161.3C198.05 160.6 197.95 160.25 198.4 160.1C199.15 159.85 199.2 158 198.45 158C198.05 158 198.1 157.7 198.55 157.15C199.1 156.5 199.1 156.3 198.65 156.15C197.55 155.75 197.9 154 199 154C200.1 154 200.35 153.25 199.4 152.8C198.9 152.55 198.9 152.45 199.4 152.2C199.7 152.05 200 151.5 200 150.95C200 150.45 200.25 150 200.5 150C201.2 150 201.15 151.85 200.4 152.1C200.05 152.25 200.15 152.65 200.75 153.35C201.25 153.95 201.95 154.3 202.3 154.15C202.7 154 203 154.15 203 154.45C203 154.75 203.25 155 203.5 155C203.8 155 204 154.55 204 154C204 153.35 204.35 153 205 153C205.55 153 206 152.8 206 152.5C206 152.25 205.8 152 205.5 152C205.25 152 205 151.35 205 150.5C205 149.7 204.8 149 204.5 149C204.25 149 204 149.9 204 151C204 152.65 203.85 153 203 153C202.15 153 202 152.65 202 151C202 149.35 201.85 149 201.05 149C200.5 149 200 149.3 199.85 149.65C199.7 150.05 199.3 149.85 198.55 149.05L197.5 147.85L196.45 149.05C195.65 150 195.35 150.1 195 149.5C194.75 149.1 194.4 148.95 194.2 149.1C194.05 149.3 194.25 149.8 194.65 150.25C195.5 151.1 198 151.3 198 150.5C198 150.25 198.25 150 198.5 150C199.25 150 199.1 151.5 198.2 152.35C197.6 153 197.3 153 197 152.55C196.8 152.2 196.2 152 195.7 152.15C194.85 152.35 194.85 152.45 195.9 152.75C197.1 153.15 197.4 154.75 196.4 155.2C195.9 155.45 195.9 155.55 196.4 155.8C196.7 155.95 197 156.7 197 157.5C197 158.3 197.3 159.05 197.65 159.15C198.1 159.35 198.05 159.55 197.5 159.95C196.9 160.35 196.95 160.6 197.9 161.4C198.5 161.95 199 162.75 199 163.2C199 163.65 199.25 164 199.5 164C199.8 164 200 163.55 200 163C200 162.35 200.35 162 201 162C202.1 162 202.35 162.75 201.4 163.15C200.9 163.35 200.95 163.55 201.5 163.95C201.9 164.2 202.05 164.6 201.85 164.85C201.6 165.05 201.25 164.9 200.95 164.5C200.55 163.85 200.45 163.85 200 164.5C199.55 165.15 199.45 165.15 199 164.5C198.55 163.85 198.45 163.85 197.95 164.5C197.55 165.05 197.35 165.1 197.15 164.65C197.05 164.3 196.5 164 196 164C195.5 164 195 163.7 194.85 163.4C194.75 163.05 194.45 162.9 194.25 163.1C194.05 163.3 194.4 163.9 195.05 164.45C195.7 165 196.1 165.6 195.9 165.8C195.3 166.35 193 163.4 193 162.15C193 161.5 192.8 161 192.5 161C192.25 161 192 161.9 192 163C192 165.2 191.8 165.4 190.65 164.2C189.95 163.55 189.95 163.35 190.55 162.95C191.15 162.55 191.15 162.45 190.5 162C189.85 161.55 189.85 161.45 190.5 161.05C190.9 160.75 191.05 160.35 190.8 160.15C190.55 159.95 190.25 160.05 190.15 160.4C190 160.7 189.5 161 189 161C188.5 161 188 161.3 187.9 161.6C187.75 162.05 187.4 161.95 186.7 161.3C186.05 160.6 185.95 160.25 186.4 160.1C187.2 159.85 187.2 158.15 186.4 157.85C185.9 157.65 185.95 157.45 186.5 157C187.05 156.55 187.1 156.35 186.65 156.15C185.6 155.75 185.9 154 187 154C187.65 154 188 154.35 188 155C188 155.55 188.25 156 188.5 156C188.8 156 189 155.55 189 155C189 154.35 189.35 154 190 154C190.55 154 191 154.25 191 154.5C191 154.8 191.25 155 191.5 155C191.8 155 192 154.55 192 154C192 153.35 192.35 153 193 153C193.55 153 194 152.8 194 152.5C194 152.25 193.8 152 193.5 152C193.25 152 193 151.35 193 150.5C193 149.7 192.8 149 192.5 149C192.25 149 192 149.9 192 151C192 152.65 191.85 153 191 153C190.15 153 190 152.65 190 151C190 149.35 189.85 149 189.05 149C188.5 149 188 149.3 187.85 149.65C187.7 150.05 187.25 149.85 186.55 149C185.6 148 185.35 147.9 184.95 148.5C184.55 149.15 184.45 149.15 184.05 148.55C183.65 147.95 183.45 147.95 182.75 148.65C182 149.4 182 149.6 182.7 150.25C183.5 151.1 186 151.3 186 150.5C186 150.25 186.25 150 186.5 150C187.3 150 187.1 151.5 186.15 152.4C185.55 153 185.25 153.05 185.1 152.6C184.9 151.9 183 151.8 183 152.5C183 152.8 183.45 153 184 153C185.15 153 185.4 154.7 184.4 155.2C183.9 155.45 183.9 155.55 184.4 155.8C184.7 155.95 185 156.7 185 157.5C185 158.3 185.3 159.05 185.65 159.15C186.1 159.35 186.05 159.55 185.5 159.95C184.9 160.35 184.95 160.6 185.9 161.4C186.5 161.95 187 162.75 187 163.2C187 163.65 187.25 164 187.5 164C187.8 164 188 163.55 188 163C188 162.35 188.35 162 189 162C190.1 162 190.35 162.75 189.4 163.15C188.9 163.35 188.95 163.55 189.5 163.95C189.9 164.2 190.05 164.6 189.85 164.85C189.6 165.05 189.25 164.9 188.95 164.5C188.55 163.85 188.45 163.85 188 164.5C187.55 165.15 187.45 165.15 187 164.5C186.55 163.85 186.45 163.85 185.95 164.5C185.55 165.05 185.35 165.1 185.15 164.65C185.05 164.3 184.5 164 184 164C183.5 164 183 163.7 182.85 163.4C182.75 163.05 182.45 162.9 182.25 163.1C182.05 163.3 182.4 163.9 183.05 164.45C183.7 165 184.1 165.55 183.9 165.75C183.3 166.35 181 163.6 181 162.25C181 161.55 180.8 161 180.5 161C180.25 161 180 161.9 180 163C180 165.2 179.8 165.4 178.65 164.2C177.95 163.55 177.95 163.35 178.55 162.95C179.15 162.55 179.15 162.45 178.5 162C177.85 161.55 177.85 161.45 178.5 161.05C178.9 160.75 179.05 160.35 178.8 160.15C178.55 159.95 178.25 160.05 178.15 160.4C178 160.7 177.5 161 177 161C176.5 161 176 161.3 175.9 161.6C175.75 162.05 175.4 161.95 174.7 161.3C174.05 160.6 173.95 160.25 174.4 160.1C175.1 159.9 175.2 158 174.5 158C174.2 158 174.25 157.6 174.6 157C174.95 156.45 175.65 156 176.1 156C176.65 156 177 155.6 177 155C177 154.35 177.35 154 178 154C178.55 154 179 154.25 179 154.5C179 154.8 179.25 155 179.5 155C179.8 155 180 154.55 180 154C180 153.35 180.35 153 181 153C181.55 153 182 152.8 182 152.5C182 152.25 181.8 152 181.5 152C181.25 152 181 151.35 181 150.5C181 149.7 180.8 149 180.5 149C180.25 149 180 149.9 180 151C180 152.7 179.85 153 179 153C178.25 153 178 152.7 178.05 151.9C178.25 149.7 178 149 177.05 149C176.5 149 176 149.3 175.85 149.65C175.7 150.05 175.3 149.9 174.65 149.15C173.55 147.9 172.5 147.55 173.5 148.75C174.55 150 173.6 150.25 172.5 149.05C171.6 148 171.45 147.95 170.75 148.7C170 149.4 170 149.6 170.7 150.25C171.5 151.1 174 151.3 174 150.5C174 150.25 174.25 150 174.5 150C175.3 150 175.1 151.5 174.15 152.4C173.55 153 173.25 153.05 173.1 152.6C172.9 151.9 171 151.8 171 152.5C171 152.8 171.45 153 172 153C173.5 153 173.25 154.4 171.45 156.05L169.9 157.5L171.05 158.55C171.9 159.25 172.05 159.65 171.65 159.8C170.65 160.25 170.9 161.35 172.25 162.75C173.75 164.2 174 164.3 174 163.2C174 162.75 173.5 161.95 172.9 161.4C171.95 160.6 171.9 160.35 172.5 159.95C173.05 159.55 173.1 159.35 172.65 159.15C171.9 158.85 171.8 156.7 172.5 156.25C172.8 156.05 173 156.55 173 157.45C173 158.25 173.3 159.05 173.65 159.15C174.1 159.35 174.05 159.55 173.5 159.95C172.9 160.35 172.95 160.6 173.9 161.4C174.5 161.95 175 162.75 175 163.2C175 163.65 175.25 164 175.5 164C175.8 164 176 163.55 176 163C176 162.35 176.35 162 177 162C178.1 162 178.35 162.75 177.4 163.15C176.9 163.35 176.95 163.55 177.5 163.95C177.9 164.2 178.05 164.6 177.85 164.85C177.6 165.05 177.25 164.9 176.95 164.5C176.55 163.85 176.45 163.85 176 164.5C175.55 165.15 175.45 165.15 175 164.5C174.55 163.85 174.45 163.85 174 164.5C173.7 164.95 173.35 165.05 173.15 164.75C172.55 164 170.45 162.9 170.1 163.2C169.95 163.35 170.35 163.95 171 164.5C171.65 165.05 172.05 165.65 171.85 165.8C171.3 166.35 169 163.55 169 162.25C169 161.55 168.8 161 168.5 161C168.25 161 168 161.9 168 163C168 164.9 167.35 165.7 166.85 164.4C166.65 163.9 166.45 163.95 166.05 164.5C165.55 165.15 165.45 165.15 165 164.5C164.55 163.85 164.45 163.85 164 164.5C163.55 165.15 163.45 165.15 163 164.5C162.55 163.85 162.45 163.85 161.95 164.5C161.55 165.05 161.35 165.1 161.15 164.65C161.05 164.3 160.5 164 160 164C159.5 164 159 163.7 158.85 163.4C158.75 163.05 158.45 162.9 158.25 163.1C158 163.35 158.35 163.95 159 164.5C159.65 165.05 160.05 165.65 159.85 165.8C159.3 166.35 157 163.55 157 162.25C157 161.55 156.8 161 156.5 161C156.25 161 156 161.9 156 163C156 165.2 155.8 165.4 154.65 164.2C153.95 163.55 153.95 163.35 154.55 162.95C155.15 162.55 155.15 162.45 154.5 162C153.85 161.55 153.85 161.45 154.5 160.95C155.05 160.55 155.1 160.35 154.65 160.15C153.75 159.8 153.85 159 154.8 159C155.75 159 157 157.8 157 156.9C157 156.5 157.45 155.9 158 155.5C158.55 155.1 159 154.6 159 154.4C159 154.2 158.55 154 158 154C157.4 154 157 154.35 157 154.8C157 155.2 156.65 155.95 156.2 156.35C155.55 157.05 155.35 157.05 155 156.45C154.65 155.9 154.35 156.05 153.5 157C152.65 158 152.35 158.1 152 157.5C151.75 157.1 151.4 156.95 151.2 157.1C151 157.3 151.55 158.15 152.45 158.95C154.25 160.65 154.35 161 153.05 161C152.5 161 152 161.3 151.9 161.6C151.75 162.05 151.4 161.95 150.7 161.3C150.05 160.6 149.95 160.25 150.4 160.1C150.7 160 151 159.5 151 159C151 158.5 150.7 158 150.4 157.9C149.95 157.75 150 157.45 150.65 156.8C151.7 155.75 151.75 155.45 150.75 155.8C150.25 156 150 155.8 150 155.05C150 154.35 150.3 154 151 154C152.1 154 152.35 153.25 151.4 152.8C150.9 152.55 150.9 152.45 151.4 152.2C151.7 152.05 152 151.5 152 150.95C152 150.45 152.25 150 152.5 150C153.2 150 153.1 151.85 152.4 152.15C151.9 152.35 151.95 152.55 152.5 153C153.05 153.45 153.1 153.65 152.65 153.85C151.9 154.15 151.8 156 152.5 156C152.8 156 153 155.55 153 155C153 154.35 153.35 154 154 154C154.55 154 155 154.25 155 154.5C155 154.8 155.25 155 155.5 155C155.8 155 156 154.55 156 154C156 153.35 156.35 153 157 153C157.55 153 158 152.8 158 152.5C158 152.25 157.8 152 157.5 152C157.25 152 157 151.35 157 150.5C157 149.7 156.8 149 156.5 149C156.25 149 156 149.9 156 151C156 152.65 155.85 153 155 153C154.15 153 154 152.65 154 151C154 149.35 153.85 149 153.05 149C152.5 149 152 149.3 151.85 149.65C151.7 150.05 151.3 149.9 150.65 149.15C149.55 147.9 148.5 147.55 149.5 148.75C150.55 150 149.6 150.25 148.5 149.05C147.6 148 147.45 147.95 146.75 148.7C146 149.4 146 149.6 146.7 150.25C147.5 151.1 150 151.3 150 150.5C150 150.25 150.25 150 150.5 150C151.25 150 151.1 151.5 150.2 152.35C149.65 152.95 149.3 153 148.85 152.55C148.15 151.85 147 151.8 147 152.5C147 152.8 147.45 153 148 153C149.15 153 149.4 154.7 148.4 155.2C147.9 155.45 147.9 155.55 148.35 155.8C148.7 155.95 149 156.7 149 157.5C149 158.3 149.3 159.05 149.65 159.15C150.1 159.35 150.05 159.55 149.5 159.95C148.9 160.35 148.95 160.6 149.9 161.4C150.5 161.95 151 162.75 151 163.2C151 163.65 151.25 164 151.5 164C151.8 164 152 163.55 152 163C152 162.35 152.35 162 153 162C154.1 162 154.35 162.75 153.4 163.15C152.9 163.35 152.95 163.55 153.5 163.95C153.9 164.2 154.05 164.6 153.85 164.85C153.6 165.05 153.25 164.9 152.95 164.5C152.55 163.85 152.45 163.85 152 164.5C151.55 165.15 151.45 165.15 151 164.5C150.55 163.85 150.45 163.85 149.95 164.5C149.55 165.05 149.35 165.1 149.15 164.65C149.05 164.3 148.5 164 148 164C147.5 164 147 163.7 146.85 163.4C146.75 163.05 146.45 162.9 146.25 163.1C146.05 163.3 146.4 163.9 147.05 164.45C147.7 165 148.1 165.55 147.9 165.75C147.3 166.35 145 163.6 145 162.25C145 161.55 144.8 161 144.5 161C144.25 161 144 161.9 144 163C144 165.2 143.8 165.4 142.65 164.2C141.95 163.55 141.95 163.35 142.55 162.95C143.15 162.55 143.15 162.45 142.5 162C141.85 161.55 141.85 161.45 142.5 161C143.15 160.55 143.1 160.35 142.05 159.5C141.4 158.95 141.05 158.3 141.25 158.1C141.45 157.9 141.75 158.05 141.85 158.4C142.35 159.8 145 158.45 145 156.8C145 156.35 145.45 155.75 146 155.4C147.3 154.6 147.3 154 146 154C145.4 154 145 154.35 145 154.8C145 155.2 144.65 155.95 144.2 156.35C143.55 157.05 143.35 157.05 143 156.45C142.65 155.9 142.35 156.05 141.5 157C140.65 158 140.35 158.1 140 157.5C139.75 157.1 139.4 156.95 139.2 157.1C139 157.3 139.55 158.15 140.45 158.95C142.25 160.65 142.35 161 141.05 161C140.5 161 140 161.3 139.9 161.6C139.75 162.05 139.4 161.95 138.7 161.3C138.05 160.6 137.95 160.25 138.4 160.1C139.1 159.9 139.2 158 138.5 158C138.2 158 138.4 157.4 138.85 156.65C139.7 155.35 139.7 155.3 138.85 155.65C138.2 155.9 138 155.7 138 155C138 154.35 138.35 154 139 154C140.1 154 140.35 153.25 139.35 152.8C138.9 152.55 138.9 152.45 139.4 152.2C139.7 152.05 140 151.5 140 150.95C140 150.45 140.25 150 140.5 150C141.2 150 141.1 151.9 140.4 152.15C139.95 152.3 140.15 152.7 140.95 153.4C141.6 154 142.35 154.35 142.55 154.2C142.8 154.05 143 154.2 143 154.45C143 154.75 143.25 155 143.5 155C143.8 155 144 154.55 144 154C144 153.35 144.35 153 145 153C145.55 153 146 152.8 146 152.5C146 152.25 145.8 152 145.5 152C145.25 152 145 151.35 145 150.5C145 149.7 144.8 149 144.5 149C144.25 149 144 149.9 144 151C144 152.65 143.85 153 143 153C142.35 153 142.05 152.7 142.1 152.15C142.25 149.9 141.95 149 141.05 149C140.5 149 140 149.3 139.85 149.65C139.7 150.05 139.25 149.85 138.55 149C137.6 148 137.35 147.9 136.95 148.5C136.55 149.15 136.45 149.15 136.05 148.55C135.65 147.95 135.45 147.95 134.75 148.65C134 149.4 134 149.6 134.7 150.25C135.5 151.1 138 151.3 138 150.5C138 150.25 138.25 150 138.5 150C139.25 150 139.1 151.5 138.2 152.35C137.6 153 137.3 153 137 152.55C136.8 152.2 136.2 152 135.7 152.15C134.85 152.35 134.85 152.45 135.9 152.75C136.55 152.95 137 153.5 137 154.1C137 154.6 136.8 154.9 136.5 154.75C136.25 154.6 136 154.8 136 155.2C136 155.65 136.25 156 136.5 156C136.8 156 137 156.65 137 157.45C137 158.25 137.3 159.05 137.65 159.15C138.1 159.35 138.05 159.55 137.5 159.95C136.9 160.35 136.95 160.6 137.9 161.4C138.5 161.95 139 162.75 139 163.2C139 163.65 139.25 164 139.5 164C139.8 164 140 163.55 140 163C140 162.35 140.35 162 141 162C142.1 162 142.35 162.75 141.4 163.15C140.9 163.35 140.95 163.55 141.5 163.95C141.9 164.2 142.05 164.6 141.85 164.85C141.6 165.05 141.25 164.9 140.95 164.5C140.55 163.85 140.45 163.85 140 164.5C139.6 165.15 139.45 165.1 138.8 164.25C138.35 163.7 138 163.05 138 162.8C138 162.55 137.5 161.95 136.9 161.4C135.95 160.6 135.9 160.35 136.5 160C137.1 159.65 137.1 159.4 136.6 158.9C136.3 158.6 136 157.8 136 157.15C136 155.8 135.7 155.7 134.65 156.75C133.95 157.45 134 157.65 135.05 158.6C135.85 159.3 136.05 159.7 135.65 159.85C134.5 160.25 134.95 161.8 136.6 163.15C137.45 163.9 138 164.65 137.75 164.85C137.55 165.1 137.25 164.95 137.15 164.65C137 164.3 136.5 164 136 164C135.5 164 135 163.7 134.85 163.4C134.75 163.05 134.45 162.9 134.25 163.1C134 163.35 134.35 163.95 135 164.5C135.65 165.05 136.05 165.65 135.85 165.8C135.3 166.35 133 163.55 133 162.25C133 161.55 132.8 161 132.5 161C132.25 161 132 161.9 132 163C132 165.2 131.8 165.4 130.65 164.2C129.95 163.55 129.95 163.35 130.55 162.95C131.15 162.55 131.15 162.45 130.5 162C129.85 161.55 129.85 161.45 130.5 160.95C131.05 160.55 131.1 160.35 130.65 160.15C129.75 159.8 129.85 159 130.8 159C131.75 159 133 157.8 133 156.9C133 156.5 133.45 155.9 134 155.5C134.55 155.1 135 154.6 135 154.4C135 154.2 134.55 154 134 154C133.4 154 133 154.35 133 154.8C133 155.2 132.65 155.95 132.2 156.35C131.55 157.05 131.35 157.05 131 156.45C130.65 155.9 130.35 156.05 129.5 157C128.65 158 128.35 158.1 128 157.5C127.75 157.1 127.4 156.95 127.2 157.1C127 157.3 127.55 158.15 128.45 158.95C130.25 160.65 130.35 161 129.05 161C128.5 161 128 161.3 127.85 161.65C127.7 162.05 127.3 161.8 126.6 161C126.05 160.3 125.4 159.9 125.2 160.1C125 160.35 125.35 160.9 125.9 161.45C126.5 161.95 127 162.75 127 163.2C127 163.65 127.25 164 127.5 164C127.8 164 128 163.55 128 163C128 162.35 128.35 162 129 162C130.1 162 130.35 162.75 129.4 163.15C128.9 163.35 128.95 163.55 129.5 163.95C129.9 164.2 130.05 164.6 129.85 164.85C129.6 165.05 129.25 164.9 128.95 164.5C128.55 163.85 128.45 163.85 128 164.5C127.55 165.15 127.45 165.15 127 164.5C126.55 163.85 126.45 163.85 125.95 164.5C125.55 165.05 125.35 165.1 125.15 164.65C125.05 164.3 124.5 164 123.95 164C123.45 164 123 163.75 123 163.4C123 162.95 122.85 162.95 122.4 163.4C121.45 164.35 121 164.1 121 162.5C121 161.7 120.8 161 120.5 161C120.25 161 120 161.9 120 163C120 165.2 119.8 165.4 118.65 164.2C118 163.55 117.95 163.35 118.5 163C119.05 162.65 119 162.45 118.35 161.8C117.4 160.85 116.15 160.75 115.85 161.65C115.7 162.05 115.3 161.8 114.6 161C114.05 160.3 113.4 159.9 113.2 160.1C113 160.35 113.35 160.9 113.9 161.45C114.5 161.95 115 162.75 115 163.2C115 163.65 115.25 164 115.5 164C115.8 164 116 163.55 116 163C116 162.35 116.35 162 117 162C118.1 162 118.35 162.75 117.4 163.15C116.9 163.35 116.95 163.55 117.5 163.95C117.9 164.2 118.05 164.6 117.85 164.85C117.6 165.05 117.25 164.9 116.95 164.5C116.55 163.85 116.45 163.85 116 164.5C115.55 165.15 115.45 165.15 115 164.5C114.6 163.9 114.4 163.85 114.05 164.4C113.7 165 113.45 165 112.45 164.4C111.8 164.05 111.1 163.55 110.9 163.25C110.7 163 110.4 162.95 110.2 163.15C110 163.3 110.4 163.9 111.05 164.45C111.7 165 112.1 165.55 111.9 165.75C111.3 166.35 109 163.6 109 162.25C109 161.55 108.8 161 108.5 161C108.25 161 108 161.9 108 163C108 164.9 107.35 165.7 106.85 164.4C106.65 163.9 106.45 163.95 106.05 164.5C105.55 165.15 105.45 165.15 105 164.5C104.55 163.85 104.45 163.85 104 164.5C103.55 165.15 103.45 165.15 103 164.5C102.55 163.85 102.45 163.85 101.95 164.5C101.55 165.05 101.35 165.1 101.15 164.65C101.05 164.3 100.5 164 100 164C99.5 164 99 163.7 98.85 163.4C98.75 163.05 98.45 162.9 98.25 163.1C98.05 163.3 98.4 163.9 99.05 164.45C99.7 165 100.1 165.55 99.9 165.75C99.3 166.35 97 163.6 97 162.25C97 161.55 96.8 161 96.5 161C96.25 161 96 161.9 96 163C96 164.1 95.8 165 95.55 165C94.95 165 94.4 163.55 94.8 162.9C95 162.6 94.8 162.2 94.45 161.95C93.85 161.55 93.85 161.4 94.5 160.95C95.05 160.55 95.1 160.35 94.65 160.15C93.75 159.8 93.85 159 94.8 159C95.75 159 97 157.8 97 156.9C97 156.5 97.45 155.9 98 155.5C98.55 155.1 99 154.6 99 154.4C99 154.2 98.55 154 98 154C97.4 154 97 154.35 97 154.8C97 155.2 96.65 155.95 96.2 156.35C95.55 157.05 95.35 157.05 95 156.45C94.65 155.9 94.35 156.05 93.5 157C92.65 158 92.35 158.1 92 157.5C91.75 157.1 91.4 156.95 91.2 157.15C91 157.35 91.55 158.1 92.4 158.85C94.25 160.35 94.4 161 93.05 161C92.5 161 92 161.3 91.85 161.65C91.7 162.05 91.3 161.8 90.6 161C90.05 160.3 89.4 159.9 89.2 160.1C89 160.35 89.35 160.9 89.9 161.45C90.5 161.95 91 162.75 91 163.2C91 163.65 91.25 164 91.5 164C91.8 164 92 163.55 92 163C92 162.35 92.35 162 93 162C94.1 162 94.35 162.75 93.4 163.15C92.9 163.35 92.95 163.55 93.5 163.95C93.9 164.2 94.05 164.6 93.85 164.85C93.6 165.05 93.25 164.9 92.95 164.5C92.55 163.85 92.45 163.85 92 164.5C91.55 165.15 91.45 165.15 91 164.5C90.55 163.85 90.45 163.85 90 164.5C89.7 164.95 89.35 165.05 89.15 164.75C88.55 164 86.45 162.9 86.1 163.2C85.95 163.35 86.35 163.95 87 164.5C87.65 165.05 88.05 165.65 87.85 165.8C87.3 166.35 85 163.55 85 162.25C85 161.55 84.8 161 84.5 161C84.25 161 84 161.9 84 163C84 165.2 83.8 165.4 82.65 164.2C81.95 163.55 81.95 163.35 82.55 162.95C83.15 162.55 83.15 162.45 82.5 162C81.85 161.55 81.85 161.45 82.5 160.95C83.05 160.55 83.1 160.35 82.65 160.15C81.75 159.8 81.85 159 82.8 159C83.75 159 85 157.8 85 156.9C85 156.5 85.45 155.9 86 155.5C86.55 155.1 87 154.6 87 154.4C87 154.2 86.55 154 86 154C85.4 154 85 154.35 85 154.8C85 155.2 84.65 155.95 84.2 156.35C83.55 157.05 83.35 157.05 83 156.45C82.65 155.9 82.35 156.05 81.5 157C80.65 158 80.35 158.1 80 157.5C79.75 157.1 79.4 156.95 79.2 157.1C79 157.3 79.55 158.15 80.45 158.95C82.25 160.65 82.35 161 81.05 161C80.5 161 80 161.3 79.9 161.6C79.75 162.05 79.4 161.95 78.7 161.3C78.05 160.6 77.95 160.25 78.4 160.1C79.1 159.9 79.2 158 78.5 158C78.2 158 78.35 157.45 78.8 156.75C79.55 155.6 79.55 155.5 78.8 155.8C78.2 156 78 155.8 78 155.05C78 154.35 78.3 154 79 154C80.1 154 80.35 153.25 79.4 152.8C78.9 152.55 78.9 152.45 79.4 152.2C79.7 152.05 80 151.5 80 150.95C80 150.45 80.25 150 80.5 150C81.2 150 81.1 151.85 80.4 152.15C79.9 152.35 79.95 152.55 80.5 153C81.05 153.45 81.1 153.65 80.65 153.85C79.9 154.15 79.8 156 80.5 156C80.8 156 81 155.55 81 155C81 154.35 81.35 154 82 154C82.55 154 83 154.25 83 154.5C83 154.8 83.25 155 83.5 155C83.8 155 84 154.55 84 154C84 153.35 84.35 153 85 153C85.55 153 86 152.8 86 152.5C86 152.25 85.8 152 85.5 152C85.25 152 85 151.35 85 150.5C85 149.7 84.8 149 84.5 149C84.25 149 84 149.9 84 151C84 152.7 83.85 153 82.95 153C82.3 153 81.95 152.7 82.05 152.15C82.25 149.9 82 149 81.05 149C80.5 149 80 149.3 79.85 149.65C79.7 150.05 79.25 149.85 78.55 149C77.6 148 77.35 147.9 76.95 148.5C76.55 149.15 76.45 149.15 76.05 148.55C75.65 147.95 75.45 147.95 74.75 148.65C74 149.4 74 149.6 74.7 150.25C75.5 151.1 78 151.3 78 150.5C78 150.25 78.25 150 78.5 150C79.3 150 79.1 151.5 78.15 152.4C77.55 153 77.25 153.05 77.1 152.6C76.9 151.9 75 151.8 75 152.5C75 152.8 75.45 153 76 153C76.7 153 77 153.35 77 154.05C77 154.6 76.8 154.9 76.5 154.75C76.25 154.6 76 154.8 76 155.2C76 155.65 76.25 156 76.5 156C76.8 156 77 156.65 77 157.45C77 158.25 77.3 159.05 77.65 159.15C78.1 159.35 78.05 159.55 77.5 159.95C76.9 160.35 76.95 160.6 77.9 161.4C78.5 161.95 79 162.75 79 163.2C79 163.65 79.25 164 79.5 164C79.8 164 80 163.55 80 163C80 162.35 80.35 162 81 162C82.1 162 82.35 162.75 81.4 163.15C80.9 163.35 80.95 163.55 81.5 163.95C81.9 164.2 82.05 164.6 81.85 164.85C81.6 165.05 81.25 164.9 80.95 164.5C80.55 163.85 80.45 163.85 80 164.5C79.55 165.15 79.45 165.15 79 164.5C78.55 163.85 78.45 163.85 78 164.5C77.7 164.95 77.35 165.05 77.15 164.75C76.55 164 74.45 162.9 74.1 163.2C73.95 163.35 74.35 163.95 75 164.5C75.65 165.05 76 165.65 75.85 165.85C75.3 166.35 73 163.35 73 162.15C73 161.5 72.8 161 72.5 161C72.25 161 72 161.9 72 163C72 164.9 71.35 165.7 70.85 164.4C70.65 163.9 70.45 163.95 70.05 164.5C69.55 165.15 69.45 165.15 69 164.5C68.55 163.85 68.45 163.85 68.05 164.45C67.65 165.05 67.45 165.05 66.8 164.35C66.35 163.95 66 163.3 66 162.95C66 162.65 65.5 161.95 64.9 161.4C63.95 160.6 63.9 160.35 64.5 159.95C65.05 159.55 65.1 159.35 64.65 159.15C64.3 159.05 64 158.25 64 157.45C64 155.8 63.75 155.7 62.65 156.75C61.95 157.45 62 157.65 63.05 158.6C63.85 159.3 64.05 159.7 63.65 159.85C62.5 160.25 62.95 161.7 64.6 163.1C65.5 163.85 66.05 164.6 65.8 164.85C65.55 165.05 65.25 164.95 65.15 164.65C65 164.3 64.5 164 64 164C63.5 164 63 163.7 62.85 163.4C62.75 163.05 62.45 162.9 62.25 163.1C62 163.35 62.35 163.95 63 164.5C63.65 165.05 64 165.65 63.85 165.85C63.3 166.35 61 163.35 61 162.15C61 161.5 60.8 161 60.5 161C60.25 161 60 161.9 60 163C60 164.1 59.8 165 59.55 165C58.95 165 58.4 163.55 58.8 162.9C59 162.6 58.8 162.2 58.45 161.95C57.85 161.55 57.85 161.4 58.5 160.95C59.05 160.55 59.1 160.35 58.65 160.15C57.75 159.8 57.85 159 58.8 159C59.75 159 61 157.8 61 156.9C61 156.5 61.45 155.9 62 155.5C62.55 155.1 63 154.6 63 154.4C63 154.2 62.55 154 62 154C61.4 154 61 154.35 61 154.8C61 155.2 60.65 155.95 60.2 156.35C59.55 157.05 59.35 157.05 59 156.45C58.65 155.9 58.35 156.05 57.5 157C56.65 158 56.35 158.1 56 157.5C55.75 157.1 55.4 156.95 55.2 157.1C55 157.3 55.55 158.15 56.45 158.95C58.25 160.65 58.35 161 57.05 161C56.5 161 56 161.3 55.85 161.65C55.7 162.05 55.3 161.85 54.55 161.05C54 160.4 53.35 160 53.15 160.15C53 160.35 53.35 160.9 53.9 161.45C54.5 161.95 55 162.75 55 163.2C55 163.65 55.25 164 55.5 164C55.8 164 56 163.55 56 163C56 162.35 56.35 162 57 162C58.1 162 58.35 162.75 57.4 163.15C56.9 163.35 56.95 163.55 57.5 163.95C57.9 164.2 58.05 164.6 57.85 164.85C57.6 165.05 57.25 164.9 56.95 164.5C56.55 163.85 56.45 163.85 56 164.5C55.55 165.15 55.45 165.15 55 164.5C54.55 163.85 54.45 163.85 53.95 164.5C53.55 165.05 53.35 165.1 53.15 164.65C53.05 164.3 52.5 164 52 164C51.5 164 51 163.7 50.85 163.4C50.75 163.05 50.45 162.9 50.25 163.1C50 163.35 50.35 163.95 51 164.5C51.65 165.05 52.05 165.65 51.85 165.8C51.3 166.35 49 163.55 49 162.25C49 161.55 48.8 161 48.5 161C48.25 161 48 161.9 48 163C48 165.2 47.8 165.4 46.65 164.2C45.95 163.55 45.95 163.35 46.55 162.95C47.15 162.55 47.15 162.45 46.5 162C45.85 161.55 45.85 161.45 46.5 160.95C47.05 160.55 47.1 160.35 46.65 160.15C45.75 159.8 45.85 159 46.8 159C47.75 159 49 157.8 49 156.9C49 156.5 49.45 155.9 50 155.5C51.15 154.65 51.3 154 50.3 154C49.85 154 49.7 153.65 49.85 153C50 152.45 49.85 152 49.55 152C49.25 152 49 151.35 49 150.5C49 149.35 48.8 149 48 149C47.45 149 47 149.25 47 149.5C47 149.8 47.25 150 47.55 150C48.45 150 47.85 152.75 46.9 152.9C46.2 153.05 46 152.75 46 151.55C46 150.7 45.8 150 45.5 150C45.25 150 45 150.45 45 150.95C45 151.5 44.7 152 44.4 152.1C43.55 152.4 45.1 154 46.2 154C46.65 154 47 154.25 47 154.5C47 154.8 47.25 155 47.5 155C47.8 155 48 154.55 48 154C48 153.45 48.25 153 48.5 153C49.3 153 49.1 155.5 48.2 156.35C47.55 157.05 47.35 157.05 47 156.45C46.65 155.9 46.35 156.05 45.5 157C44.65 158 44.35 158.1 44 157.5C43.75 157.1 43.4 156.95 43.2 157.1C43 157.3 43.55 158.15 44.45 158.95C46.25 160.65 46.35 161 45.05 161C44.5 161 44 161.3 43.85 161.65C43.7 162.05 43.3 161.85 42.55 161.05C42 160.4 41.35 160 41.15 160.15C41 160.35 41.35 160.9 41.9 161.45C43.2 162.55 43.3 163.3 42.15 164.4C41.55 165 41.25 165.05 41.1 164.6C41 164.3 40.5 164 40 164C39.5 164 39 163.7 38.85 163.4C38.75 163.05 38.45 162.9 38.25 163.1C38 163.35 38.35 163.95 39 164.5C39.65 165.05 40.05 165.65 39.85 165.8C39.3 166.35 37 163.55 37 162.25C37 161.55 36.8 161 36.5 161C36.25 161 36 161.9 36 163C36 165.2 35.8 165.4 34.65 164.2C33.95 163.55 33.95 163.35 34.55 162.95C35.15 162.55 35.15 162.45 34.5 162C33.85 161.55 33.85 161.45 34.5 160.95C35.05 160.55 35.1 160.35 34.65 160.15C33.65 159.8 33.9 159 34.95 159C35.5 159 36 158.7 36.15 158.4C36.25 158 36.55 157.95 36.8 158.2C37.05 158.45 37 158.75 36.65 158.85C35.65 159.2 35.9 160 37 160C37.65 160 38 159.65 38 159C38 158.45 37.8 158 37.5 158C36.65 158 36.95 156.75 38 155.6C38.55 155 39 154.4 39 154.25C39 154.1 38.55 154 38 154C37.4 154 37 154.35 37 154.8C37 155.2 36.65 155.95 36.2 156.35C35.55 157.05 35.35 157.05 35 156.45C34.65 155.9 34.35 156 33.55 156.95L32.55 158.1L31.25 156.8C29.75 155.3 29.6 154 31 154C32.1 154 32.35 153.2 31.4 152.9C30.95 152.75 31.05 152.4 31.7 151.75C32.35 151.05 32.45 150.75 32 150.6C31.65 150.45 31.2 150.7 30.95 151.05C29.5 153.2 29.45 153.25 29.2 152.65C28.85 151.9 27 151.8 27 152.5C27 152.8 27.45 153 28 153C29.15 153 29.4 154.7 28.4 155.2C27.9 155.45 27.9 155.55 28.4 155.8C28.7 155.95 29 156.7 29 157.5C29 158.3 29.3 159.05 29.65 159.15C30.1 159.35 30.05 159.55 29.5 159.95C28.9 160.35 28.95 160.6 29.9 161.4C30.5 161.95 31 162.75 31 163.2C31 163.65 31.25 164 31.5 164C31.8 164 32 163.55 32 163C32 162.35 32.35 162 33 162C34.1 162 34.35 162.75 33.4 163.15C32.9 163.35 32.95 163.55 33.5 163.95C33.9 164.2 34.05 164.6 33.85 164.85C33.6 165.05 33.25 164.9 32.95 164.5C32.55 163.85 32.45 163.85 32 164.5C31.55 165.15 31.45 165.15 31 164.5C30.55 163.85 30.45 163.85 29.95 164.5C29.55 165.05 29.35 165.1 29.15 164.65C29.05 164.3 28.5 164 28 164C27.5 164 27 163.7 26.85 163.4C26.75 163.05 26.45 162.9 26.25 163.1C26 163.35 26.35 163.95 27 164.5C27.65 165.05 28 165.65 27.85 165.85C27.3 166.35 25 163.35 25 162.15C25 161.5 24.8 161 24.5 161C24.25 161 24 161.9 24 163C24 165.2 23.8 165.4 22.65 164.2C21.95 163.55 21.95 163.35 22.55 162.95C23.15 162.55 23.15 162.45 22.5 162C21.85 161.55 21.85 161.45 22.5 160.95C23.05 160.55 23.1 160.35 22.65 160.15C21.75 159.8 21.85 159 22.8 159C23.75 159 25 157.8 25 156.9C25 156.5 25.45 155.9 26 155.5C26.55 155.1 27 154.6 27 154.4C27 154.2 26.55 154 26 154C25.4 154 25 154.35 25 154.8C25 155.2 24.65 155.95 24.2 156.35C23.55 157.05 23.35 157.05 23 156.45C22.65 155.9 22.35 156.05 21.5 157C20.65 158 20.35 158.1 20 157.5C19.75 157.1 19.4 156.95 19.2 157.1C19 157.3 19.55 158.15 20.45 158.95C22.25 160.65 22.35 161 21.05 161C20.5 161 19.95 161.3 19.85 161.65C19.65 162.1 19.45 162.05 19.05 161.5C18.6 160.85 18.45 160.85 18.05 161.45C17.65 162.05 17.45 162 16.7 161.3C15.95 160.55 15.95 160.35 16.55 159.9C17.1 159.55 17.1 159.35 16.65 159.15C16.3 159.05 16 158.25 16 157.45C16 156.65 15.9 156 15.75 156C15.4 156 12 159.4 12 159.75C12 160.55 13.95 159.85 14.15 158.95C14.45 157.9 14.45 157.9 15.35 158.75C16 159.4 16.05 159.75 15.6 159.9C14.65 160.2 14.9 161.45 16.25 162.75C17.65 164.2 18 164.3 18 163.25C18 162.85 18.25 162.5 18.5 162.5C18.8 162.5 19 162.85 19 163.25C19 163.65 19.25 164 19.5 164C19.8 164 20 163.55 20 163C20 162.35 20.35 162 21 162C22.1 162 22.35 162.75 21.4 163.15C20.9 163.35 20.95 163.55 21.5 163.95C21.9 164.2 22.05 164.6 21.85 164.85C21.6 165.05 21.25 164.9 20.95 164.5C20.55 163.85 20.45 163.85 20 164.5C19.55 165.15 19.45 165.15 19 164.5C18.55 163.85 18.45 163.85 17.95 164.5C17.55 165.05 17.35 165.1 17.15 164.65C17.05 164.3 16.5 164 16 164C15.5 164 15 163.7 14.85 163.4C14.75 163.05 14.45 162.9 14.25 163.1C14 163.35 14.35 163.95 15 164.5C15.65 165.05 16.05 165.65 15.85 165.8C15.3 166.35 13 163.55 13 162.25C13 161.55 12.8 161 12.5 161C12.25 161 12 161.9 12 163C12 165.2 11.8 165.4 10.65 164.2C9.95 163.55 9.95 163.35 10.55 162.95C11.15 162.55 11.15 162.45 10.5 162C9.85 161.55 9.85 161.45 10.5 160.95C11.05 160.55 11.1 160.35 10.65 160.15C9.75 159.8 9.85001 159 10.8 159C11.75 159 13 157.8 13 156.9C13 156.5 13.45 155.9 14 155.5C14.55 155.1 15 154.6 15 154.4C15 154.2 14.55 154 14 154C13.4 154 13 154.35 13 154.8C13 155.2 12.65 155.95 12.2 156.35C11.55 157.05 11.35 157.05 11 156.45C10.65 155.9 10.35 156.05 9.5 157C8.65 158 8.35 158.1 8 157.5C7.75 157.1 7.4 156.95 7.2 157.1C7 157.3 7.55 158.15 8.45 158.95C10.2 160.6 10.35 161 9.2 161C8.8 161 8.1 161.3 7.7 161.7C6.9 162.55 6.75 164 7.5 164C7.8 164 8 163.55 8 163C8 162.35 8.35 162 9 162C10.1 162 10.35 162.75 9.4 163.15C8.9 163.35 8.95 163.55 9.5 163.95C9.9 164.2 10.05 164.6 9.85001 164.85C9.60001 165.05 9.25 164.9 8.95 164.5C8.55 163.85 8.45 163.85 8 164.5C7.55 165.15 7.45 165.15 7 164.5C6.55 163.85 6.45 163.85 6 164.5C5.55 165.15 5.40001 165.1 4.85001 164.25C4.35001 163.4 4.2 163.75 4 167C3.85 169.05 3.65 181.5 3.55 194.6C3.45001 217.4 3.5 218.5 4.45 220.6C5.8 223.6 8.45 225.75 11.75 226.55C12.6 226.75 79.3 226.85 160 226.85L306.75 226.75L309 225.5ZM4 223C4 222.45 3.8 222 3.5 222C3.25 222 3 222.45 3 223C3 223.55 3.25 224 3.5 224C3.8 224 4 223.55 4 223ZM3 220C2.7 219.45 2.35 219 2.25 219C2.1 219 2 219.45 2 220C2 220.55 2.35 221 2.75 221C3.4 221 3.45 220.8 3 220ZM1.85001 215C1.75001 213.35 1.50001 211.85 1.35001 211.7C1.10001 211.45 1.2 215.65 1.5 217.9C1.5 217.95 1.65001 218 1.80001 218C1.95001 218 2.00001 216.65 1.85001 215ZM1.35001 165.65C1.25001 164.85 1.15 165.4 1.15 166.75C1.15 168.15 1.25001 168.75 1.35001 168.15C1.45001 167.5 1.45001 166.4 1.35001 165.65ZM30 163.2C30 162.75 29.5 161.95 28.9 161.4C27.95 160.6 27.9 160.35 28.5 159.95C29.05 159.55 29.1 159.35 28.65 159.15C28.3 159.05 28 158.25 28 157.45C28 156.65 27.9 156 27.75 156C27.4 156 24 159.4 24 159.75C24 159.9 24.45 160 25.05 160C25.6 160 25.95 159.8 25.8 159.6C25.7 159.4 25.75 158.9 26 158.5C26.35 157.95 26.6 158 27.35 158.75C28 159.4 28.05 159.75 27.6 159.9C26.65 160.2 26.9 161.4 28.15 162.75C29.45 164.15 30 164.3 30 163.2ZM54 163.2C54 162.75 53.5 161.95 52.9 161.4C51.95 160.6 51.9 160.35 52.5 159.95C53.05 159.55 53.1 159.35 52.65 159.15C51.9 158.85 51.75 156 52.5 156C52.8 156 53 156.65 53 157.4C53 158.75 53.75 160 54.6 160C55.25 160 55.05 158.1 54.4 157.9C53.95 157.75 54 157.45 54.65 156.8C55.7 155.75 55.75 155.45 54.75 155.8C54.25 156 54 155.8 54 155.05C54 154.35 54.3 154 55 154C56.2 154 56.25 153.7 55.2 152.65C54.55 151.95 54.35 151.95 53.9 152.55C53.55 153.1 53.35 153.1 53.15 152.65C52.85 151.9 51 151.8 51 152.5C51 152.8 51.45 153 52 153C53.7 153 53.15 154.45 50.5 157C49.15 158.35 48 159.55 48 159.7C48 159.85 48.45 160 49 160C49.65 160 50 159.65 50 159C50 157.8 50.3 157.75 51.4 158.85C52 159.45 52.05 159.75 51.6 159.9C50.65 160.2 50.9 161.4 52.15 162.75C53.45 164.15 54 164.3 54 163.2ZM68 163.3C68 162.55 69.45 161.8 69.95 162.25C70.1 162.4 69.9 162.75 69.5 163C69.1 163.25 68.95 163.6 69.1 163.8C69.3 163.95 69.85 163.75 70.3 163.25C71.05 162.55 71.05 162.35 70.45 161.95C69.85 161.55 69.85 161.45 70.5 161.05C70.9 160.75 71.05 160.35 70.8 160.15C70.55 159.95 70.25 160.05 70.15 160.4C70 160.7 69.5 161 69 161C68.5 161 68 161.2 67.9 161.45C67.85 161.7 67.3 161.6 66.75 161.15C66.05 160.6 65.95 160.3 66.4 160.15C66.7 160 66.9 159.75 66.8 159.55C66.65 159.35 66.75 158.9 67 158.5C67.35 157.95 67.55 158 68.25 158.65C69.25 159.7 69.55 159.7 69.2 158.75C69 158.35 69.15 158 69.45 158C69.75 158 70 158.25 70 158.5C70 158.8 70.45 159 71 159C71.55 159 72 159.25 72 159.5C72 160.3 73.35 160.05 73.7 159.2C74.1 158.15 73.6 157.55 73.05 158.45C72.75 158.9 72.5 158.95 72.3 158.55C72.1 158.25 72.2 158 72.45 158C72.75 158 73 157.6 73 157.1C73 156.6 73.45 155.9 74 155.5C74.55 155.1 75 154.6 75 154.4C75 154.2 74.55 154 74 154C73.4 154 73 154.35 73 154.8C73 155.2 72.65 155.95 72.2 156.35C71.55 157.05 71.35 157.05 71 156.45C70.65 155.9 70.35 156.05 69.5 157C68.6 158 68.35 158.1 67.95 157.5C67.55 156.85 67.45 156.85 67.05 157.5C66.75 157.9 66.4 158.05 66.15 157.85C65.95 157.6 66.1 157.2 66.5 156.95C67.05 156.55 67.1 156.35 66.65 156.15C65.6 155.75 65.9 154 67 154C67.65 154 68 154.35 68 155C68 155.55 68.25 156 68.5 156C69.4 156 69 154.4 67.9 153.35C67.1 152.7 66.95 152.3 67.4 152.15C67.7 152 68 151.5 68 150.95C68 150.45 68.25 150 68.5 150C69.2 150 69.1 151.9 68.4 152.1C67.6 152.4 70.15 155 71.25 155C71.65 155 72 154.55 72 154C72 153.3 71.65 153 70.95 153C70.3 153 69.95 152.7 70.05 152.15C70.2 150.3 69.95 149.45 69.2 149.15C68.75 149 68.2 149.15 68 149.55C67.65 150.05 67.35 149.95 66.5 149C65.6 148 65.35 147.9 64.95 148.5C64.55 149.15 64.45 149.15 64.05 148.55C63.65 147.95 63.45 147.95 62.75 148.65C62 149.4 62 149.6 62.7 150.25C63.5 151.1 66 151.3 66 150.5C66 150.25 66.25 150 66.5 150C67.25 150 67.1 151.5 66.2 152.35C65.65 152.95 65.3 153 64.85 152.55C64.15 151.85 63 151.8 63 152.5C63 152.8 63.45 153 64 153C65.15 153 65.4 154.7 64.4 155.2C63.9 155.45 63.9 155.55 64.4 155.8C64.7 155.95 65 156.7 65 157.5C65 158.3 65.3 159.05 65.65 159.15C66.1 159.35 66.05 159.55 65.5 159.95C64.9 160.35 64.95 160.6 65.9 161.4C66.5 161.95 67 162.75 67 163.2C67 163.65 67.25 164 67.5 164C67.8 164 68 163.7 68 163.3ZM78 163.2C78 162.75 77.5 161.95 76.9 161.4C75.95 160.6 75.9 160.35 76.5 159.95C77.05 159.55 77.1 159.35 76.65 159.15C76.3 159.05 76 158.25 76 157.45C76 155.8 75.75 155.7 74.65 156.75C73.95 157.45 74 157.65 75.05 158.6C75.85 159.3 76.05 159.7 75.65 159.85C74.65 160.2 74.9 161.55 76.15 162.75C77.5 164.15 78 164.25 78 163.2ZM90 163.2C90 162.75 89.55 161.95 88.95 161.45C87.95 160.6 87.95 160.5 88.8 159.65C89.4 159 89.75 158.95 89.9 159.4C90 159.7 90.3 160 90.55 160C91.25 160 91.1 158.1 90.4 157.85C89.9 157.65 89.95 157.45 90.5 157C91.05 156.55 91.1 156.35 90.65 156.15C90.05 155.95 89.7 154 90.2 154C91 154 92 154.7 92 155.3C92 155.7 92.25 156 92.5 156C93.35 156 93.05 154.75 91.9 153.5C91.15 152.7 91 152.25 91.4 152.1C91.75 152 92 151.5 92 150.95C92 150.45 92.25 150 92.5 150C93.2 150 93.1 151.9 92.4 152.15C91.95 152.3 92.15 152.7 92.95 153.4C93.6 154 94.35 154.35 94.55 154.2C94.8 154.05 95 154.2 95 154.45C95 154.75 95.25 155 95.5 155C95.8 155 96 154.55 96 154C96 153.35 96.35 153 97 153C97.55 153 98 152.8 98 152.5C98 152.25 97.8 152 97.5 152C97.25 152 97 151.35 97 150.5C97 149.7 96.8 149 96.5 149C96.25 149 96 149.9 96 151C96 152.7 95.85 153 94.95 153C94.3 153 93.95 152.7 94.05 152.15C94.25 149.9 94 149 93.05 149C92.5 149 92 149.3 91.85 149.65C91.7 150.05 91.25 149.85 90.55 149C89.6 148 89.35 147.9 88.95 148.5C88.55 149.15 88.45 149.15 88.05 148.55C87.65 147.95 87.45 147.95 86.75 148.65C86 149.4 86 149.6 86.7 150.25C87.5 151.1 90 151.3 90 150.5C90 150.25 90.25 150 90.5 150C91.3 150 91.1 151.5 90.15 152.4C89.55 153 89.25 153.05 89.1 152.6C88.9 151.9 87 151.8 87 152.5C87 152.8 87.45 153 88 153C89.7 153 89.15 154.45 86.5 157C85.15 158.35 84 159.55 84 159.7C84 159.85 84.45 160 85.05 160C85.6 160 85.95 159.8 85.8 159.6C85.7 159.4 85.75 158.9 86 158.5C86.35 157.95 86.6 158 87.35 158.75C88 159.4 88.05 159.75 87.6 159.9C86.65 160.2 86.9 161.6 88.15 162.85C89.5 164.15 90 164.25 90 163.2ZM102 163.2C102 162.75 101.5 161.95 100.9 161.4C99.95 160.6 99.9 160.35 100.5 159.95C101.05 159.55 101.1 159.35 100.65 159.15C99.9 158.85 99.75 156 100.5 156C100.8 156 101 156.7 101 157.55C101 158.7 101.2 159.05 101.7 158.85C102.2 158.65 102.35 158.8 102.15 159.3C102 159.65 102.15 160 102.45 160C102.75 160 103 159.55 103 159C103 157.75 103.2 157.75 104.75 159.1C106.25 160.4 106.35 161 105 161C104.45 161 104 161.25 104 161.6C104 161.9 103.45 161.65 102.75 161C102.05 160.35 101.35 160 101.15 160.15C101 160.35 101.35 160.9 101.9 161.45C102.5 161.95 103 162.75 103 163.2C103 164.35 103.85 164.2 104.15 163C104.3 162.45 104.75 162 105.2 162C106.15 162 106.25 162.8 105.4 163.15C105.05 163.25 104.9 163.55 105.1 163.75C105.3 163.95 105.85 163.75 106.3 163.25C107.05 162.55 107.05 162.35 106.45 161.95C105.85 161.55 105.85 161.4 106.5 160.95C107.05 160.55 107.1 160.35 106.65 160.15C105.75 159.8 105.85 159 106.8 159C107.75 159 109 157.8 109 156.9C109 156.5 109.45 155.9 110 155.5C110.55 155.1 111 154.6 111 154.4C111 154.2 110.55 154 110 154C109.4 154 109 154.35 109 154.8C109 155.2 108.65 155.95 108.2 156.35C107.55 157.05 107.35 157.05 107 156.45C106.65 155.9 106.35 156.05 105.5 157C104.6 158 104.35 158.1 103.95 157.5C103.55 156.85 103.45 156.85 103.05 157.5C102.75 157.9 102.4 158.05 102.15 157.85C101.95 157.6 102.1 157.2 102.5 156.95C103.05 156.55 103.1 156.35 102.65 156.15C101.6 155.75 101.9 154 103 154C103.65 154 104 154.35 104 155C104 155.55 104.25 156 104.5 156C105.35 156 105.05 154.75 103.9 153.5C103.15 152.7 103 152.25 103.4 152.1C103.75 152 104 151.5 104 150.95C104 150.45 104.25 150 104.5 150C105.2 150 105.1 151.9 104.4 152.1C103.55 152.4 105.1 154 106.2 154C106.65 154 107 154.25 107 154.5C107 154.8 107.25 155 107.5 155C107.8 155 108 154.55 108 154C108 153.35 108.35 153 109 153C109.55 153 110 152.8 110 152.5C110 152.25 109.8 152 109.5 152C109.25 152 109 151.35 109 150.5C109 149.7 108.8 149 108.5 149C108.25 149 108 149.9 108 151C108 152.65 107.85 153 107 153C106.15 153 106 152.65 106 151C106 149.35 105.85 149 105.05 149C104.5 149 104 149.3 103.85 149.65C103.7 150.05 103.25 149.85 102.55 149C101.6 148 101.35 147.9 100.95 148.5C100.55 149.15 100.45 149.15 100.05 148.55C99.65 147.95 99.45 147.95 98.75 148.65C98 149.4 98 149.6 98.7 150.25C99.5 151.1 102 151.3 102 150.5C102 150.25 102.25 150 102.5 150C103.3 150 103.1 151.5 102.15 152.4C101.55 153 101.25 153.05 101.1 152.6C100.9 151.9 99 151.8 99 152.5C99 152.8 99.45 153 100 153C101.7 153 101.15 154.45 98.5 157C97.15 158.35 96 159.55 96 159.7C96 160.4 97.3 159.9 97.9 159C98.5 158 98.6 158 99.4 158.8C100 159.45 100.05 159.75 99.6 159.9C98.65 160.2 98.9 161.4 100.15 162.75C101.45 164.15 102 164.3 102 163.2ZM114 163.2C114 162.75 113.55 161.95 112.95 161.45C111.95 160.6 111.95 160.5 112.8 159.65C113.4 159 113.75 158.95 113.9 159.4C114 159.7 114.3 160 114.55 160C115.25 160 115.1 158.1 114.4 157.9C113.55 157.6 115.1 156 116.2 156C116.65 156 117 155.6 117 155C117 154.45 116.8 154 116.5 154C116.25 154 116 154.35 116 154.75C116 155.15 115.9 155.5 115.8 155.5C115.7 155.5 115.25 155.65 114.8 155.8C114.2 156 114 155.8 114 155.05C114 154.35 114.3 154 115 154C116.1 154 116.35 153.25 115.4 152.8C114.9 152.55 114.9 152.45 115.4 152.2C115.7 152.05 116 151.5 116 150.95C116 150.45 116.25 150 116.5 150C117.2 150 117.1 151.9 116.4 152.15C115.95 152.3 116.15 152.7 116.95 153.4C117.6 154 118.3 154.35 118.5 154.25C118.75 154.1 119 154.25 119.1 154.6C119.2 154.9 119.55 155 119.9 154.8C120.7 154.3 120.05 153 118.95 153C118.35 153 118.05 152.65 118.1 152.15C118.25 149.9 117.95 149 117.05 149C116.5 149 115.95 149.3 115.8 149.65C115.65 150.05 115.25 149.9 114.6 149.15C113.5 147.9 112.5 147.55 113.5 148.75C114.55 150 113.6 150.25 112.5 149.05C111.6 148 111.45 147.95 110.75 148.7C110 149.4 110 149.6 110.7 150.25C111.5 151.1 114 151.3 114 150.5C114 150.25 114.25 150 114.5 150C115.3 150 115.1 151.5 114.15 152.4C113.55 153 113.25 153.05 113.1 152.6C112.9 151.9 111 151.8 111 152.5C111 152.8 111.45 153 112 153C113.7 153 113.15 154.45 110.5 157C109.15 158.35 108 159.55 108 159.7C108 159.85 108.45 160 109.05 160C109.6 160 109.95 159.8 109.8 159.6C109.7 159.4 109.75 158.9 110 158.5C110.35 157.95 110.6 158 111.35 158.75C112 159.4 112.05 159.75 111.6 159.9C110.7 160.2 110.85 161.1 112.15 162.6C113.4 164.2 114 164.35 114 163.2ZM126 163.2C126 162.75 125.55 161.95 124.95 161.45C123.95 160.6 123.95 160.5 124.8 159.65C125.4 159 125.75 158.95 125.9 159.4C126 159.7 126.3 160 126.55 160C127.25 160 127.1 158.1 126.4 157.85C125.9 157.65 125.95 157.45 126.5 157C127.05 156.55 127.1 156.35 126.65 156.15C125.55 155.75 125.9 154 127.05 154C127.85 154 128.05 154.25 127.85 155C127.7 155.65 127.85 156 128.3 156C129.35 156 129.15 154.9 127.75 153.3C126.8 152.2 126.35 151.95 125.9 152.4C125.5 152.8 125.15 152.8 124.7 152.45C124.3 152.15 123.75 152 123.4 152.15C123 152.35 123.15 152.55 123.9 152.75C124.6 153 125 153.5 125 154.2C125 155.05 124.9 155.1 124.5 154.5C124.1 153.9 124 153.95 124 154.9C124 155.5 124.25 156 124.5 156C124.8 156 125 156.7 125 157.5C125 158.35 124.8 159 124.5 159C124.25 159 124 158.35 124 157.5C124 156.7 123.9 156 123.75 156C123.4 156 120 159.4 120 159.75C120 160.55 121.95 159.85 122.15 158.95C122.45 157.9 122.45 157.9 123.35 158.75C124 159.4 124.05 159.75 123.6 159.9C122.65 160.2 122.9 161.6 124.15 162.85C125.5 164.15 126 164.25 126 163.2ZM150 163.2C150 162.75 149.5 161.95 148.9 161.4C147.95 160.6 147.9 160.35 148.5 159.95C149.05 159.55 149.1 159.35 148.65 159.15C148.3 159.05 148 158.25 148 157.45C148 156.65 147.9 156 147.75 156C147.4 156 144 159.4 144 159.75C144 159.9 144.45 160 145 160C145.65 160 146 159.65 146 159C146 157.8 146.3 157.75 147.4 158.85C148 159.45 148.05 159.75 147.6 159.9C146.65 160.2 146.9 161.6 148.15 162.85C149.5 164.15 150 164.25 150 163.2ZM162 163.2C162 162.75 161.5 161.95 160.9 161.4C159.95 160.6 159.9 160.35 160.5 159.95C161.05 159.55 161.1 159.35 160.65 159.15C159.9 158.85 159.8 156.7 160.5 156.25C160.8 156.05 161 156.5 161 157.25C161 158.45 162 160 162.7 160C163.3 160 163 158.1 162.4 157.85C161.9 157.65 161.95 157.45 162.5 157C163.05 156.55 163.1 156.35 162.65 156.15C161.6 155.75 161.9 154 163 154C163.65 154 164 154.35 164 155C164 155.55 164.25 156 164.5 156C164.8 156 165 155.55 165 155C165 154.35 165.35 154 166 154C166.55 154 167 154.25 167 154.5C167 154.8 167.25 155 167.5 155C167.8 155 168 154.55 168 154C168 153.35 168.35 153 169 153C169.55 153 170 152.8 170 152.5C170 152.25 169.8 152 169.5 152C169.25 152 169 151.35 169 150.5C169 149.7 168.8 149 168.5 149C168.25 149 168 149.9 168 151C168 152.65 167.85 153 167 153C166.15 153 166 152.65 166 151C166 149.35 165.85 149 165.05 149C164.5 149 164 149.3 163.85 149.65C163.7 150.05 163.25 149.85 162.55 149C161.6 148 161.35 147.9 160.95 148.5C160.55 149.15 160.45 149.15 160.05 148.55C159.65 147.95 159.45 147.95 158.75 148.65C158 149.4 158 149.6 158.7 150.25C159.5 151.1 162 151.3 162 150.5C162 150.25 162.25 150 162.5 150C163.3 150 163.1 151.5 162.15 152.4C161.55 153 161.25 153.05 161.1 152.6C160.9 151.9 159 151.8 159 152.5C159 152.8 159.45 153 160 153C161.7 153 161.15 154.45 158.5 157C157.15 158.35 156 159.55 156 159.7C156 160.15 157.5 160.05 157.5 159.65C157.5 159.4 157.7 158.95 157.95 158.55C158.35 157.95 158.55 158 159.35 158.75C160 159.4 160.05 159.75 159.6 159.9C158.65 160.2 158.9 161.55 160.15 162.75C161.5 164.15 162 164.25 162 163.2ZM164.15 163C164.3 162.45 164.75 162 165.2 162C166.15 162 166.25 162.8 165.4 163.15C165.05 163.25 164.9 163.55 165.1 163.75C165.3 163.95 165.85 163.75 166.3 163.25C167.05 162.55 167.05 162.35 166.45 161.95C165.85 161.55 165.85 161.45 166.5 161.05C166.9 160.75 167.05 160.35 166.8 160.15C166.55 159.95 166.25 160.05 166.15 160.4C166 160.7 165.5 161 165 161C164.5 161 164 161.3 163.85 161.65C163.7 162.05 163.3 161.8 162.6 161C162.05 160.3 161.4 159.9 161.2 160.1C161 160.35 161.35 160.9 161.9 161.45C162.5 161.95 163 162.75 163 163.2C163 164.35 163.85 164.2 164.15 163ZM186 163.2C186 162.75 185.5 161.95 184.9 161.4C183.95 160.6 183.9 160.35 184.5 159.95C185.05 159.55 185.1 159.35 184.65 159.15C184.3 159.05 184 158.25 184 157.45C184 155.8 183.75 155.7 182.65 156.75C181.95 157.45 182 157.65 183.05 158.6C183.85 159.3 184.05 159.7 183.65 159.85C182.65 160.2 182.9 161.6 184.15 162.85C185.5 164.15 186 164.25 186 163.2ZM198 163.2C198 162.75 197.5 161.95 196.9 161.4C195.95 160.6 195.9 160.35 196.5 159.95C197.05 159.55 197.1 159.35 196.65 159.15C196.3 159.05 196 158.25 196 157.45C196 155.8 195.75 155.7 194.65 156.75C193.95 157.45 194 157.65 195.05 158.6C195.85 159.3 196.05 159.7 195.65 159.85C194.65 160.2 194.9 161.4 196.15 162.75C197.45 164.15 198 164.3 198 163.2ZM210 163.2C210 162.75 209.5 161.95 208.9 161.4C207.95 160.6 207.9 160.35 208.5 159.95C209.05 159.55 209.1 159.35 208.65 159.15C207.9 158.85 207.8 156.7 208.5 156.25C208.8 156.05 209 156.55 209 157.45C209 158.25 209.3 159.05 209.65 159.15C210.1 159.35 210.05 159.55 209.5 159.95C208.9 160.35 208.95 160.6 209.9 161.4C210.5 161.95 211 162.75 211 163.2C211 164.35 211.85 164.2 212.15 163C212.3 162.45 212.75 162 213.2 162C214.15 162 214.25 162.8 213.4 163.15C213.05 163.25 212.9 163.55 213.1 163.75C213.3 163.95 213.85 163.75 214.3 163.25C215.05 162.55 215.05 162.35 214.45 161.95C213.85 161.55 213.85 161.4 214.5 160.95C215.05 160.55 215.1 160.35 214.65 160.15C213.75 159.8 213.85 159 214.8 159C215.75 159 217 157.8 217 156.9C217 156.5 217.45 155.9 218 155.5C218.55 155.1 219 154.6 219 154.4C219 154.2 218.55 154 218 154C217.4 154 217 154.35 217 154.8C217 155.2 216.65 155.95 216.2 156.35C215.55 157.05 215.35 157.05 215 156.45C214.65 155.9 214.35 156.05 213.5 157C212.65 158 212.35 158.1 212 157.5C211.75 157.1 211.4 156.95 211.2 157.1C211 157.3 211.55 158.15 212.45 158.95C214.25 160.65 214.35 161 213.05 161C212.5 161 212 161.3 211.9 161.6C211.75 162.05 211.4 161.95 210.7 161.3C210.05 160.6 209.95 160.25 210.4 160.1C211.15 159.85 211.2 158 210.45 158C210.05 158 210.1 157.7 210.55 157.15C211.1 156.5 211.1 156.3 210.65 156.15C209.55 155.75 209.9 154 211 154C211.65 154 212 154.35 212 155C212 155.55 212.25 156 212.5 156C212.8 156 213 155.55 213 155C213 154.35 213.35 154 214 154C214.55 154 215 154.25 215 154.55C215 154.85 215.3 155 215.65 154.85C215.95 154.75 216.2 154.3 216.1 153.8C216 153.3 216.3 153 217 153C217.55 153 218 152.8 218 152.5C218 152.25 217.8 152 217.5 152C217.25 152 217 151.35 217 150.5C217 149.7 216.8 149 216.5 149C216.25 149 216 149.9 216 151C216 152.65 215.85 153 215 153C214.15 153 214 152.65 214 151C214 149.5 213.8 149 213.2 149C212.25 149 211 150.2 211 151.1C211 151.5 210.55 152.1 210 152.5C209.45 152.9 209 153.5 209 153.9C209 154.25 207.9 155.65 206.5 157C205.15 158.35 204 159.55 204 159.7C204 159.85 204.45 160 205.05 160C205.6 160 205.95 159.8 205.8 159.6C205.7 159.4 205.75 158.9 206 158.5C206.35 157.95 206.6 158 207.35 158.75C208 159.4 208.05 159.75 207.6 159.9C206.65 160.2 206.9 161.4 208.15 162.75C209.45 164.15 210 164.3 210 163.2ZM222 163.2C222 162.75 221.5 161.95 220.9 161.4C219.95 160.6 219.9 160.35 220.5 159.95C221.05 159.55 221.1 159.35 220.65 159.15C220.3 159.05 220 158.25 220 157.45C220 156.65 219.9 156 219.75 156C219.6 156 218.7 156.8 217.75 157.75C215.7 159.75 215.65 160 217 160C217.65 160 218 159.65 218 159C218 157.8 218.3 157.75 219.4 158.85C220 159.45 220.05 159.75 219.6 159.9C218.65 160.2 218.9 161.6 220.15 162.85C221.5 164.15 222 164.25 222 163.2ZM246 163.2C246 162.75 245.5 161.95 244.9 161.4C243.95 160.6 243.9 160.35 244.5 159.95C245.05 159.55 245.1 159.35 244.65 159.15C244.3 159.05 244 158.25 244 157.45C244 156.65 243.9 156 243.75 156C243.6 156 242.7 156.8 241.75 157.75C239.7 159.75 239.65 160 241.05 160C241.6 160 241.95 159.8 241.8 159.6C241.7 159.4 241.75 158.9 242 158.5C242.35 157.95 242.6 158 243.35 158.75C244 159.4 244.05 159.75 243.6 159.9C242.65 160.2 242.9 161.4 244.15 162.75C245.45 164.15 246 164.3 246 163.2ZM258 163.2C258 162.75 257.5 161.95 256.9 161.4C255.95 160.6 255.9 160.35 256.5 159.95C257.05 159.55 257.1 159.35 256.65 159.15C255.9 158.85 255.75 156 256.5 156C256.8 156 257 156.6 257 157.3C257 158.45 258 160 258.7 160C258.85 160 259 159.55 259 159C259 158.45 258.75 158 258.45 158C258.05 158 258.1 157.7 258.55 157.15C259.1 156.5 259.1 156.3 258.65 156.15C257.55 155.75 257.9 154 259 154C259.65 154 260 154.35 260 155C260 155.55 260.25 156 260.5 156C260.8 156 261 155.55 261 155C261 154.35 261.35 154 262 154C262.55 154 263 154.25 263 154.5C263 154.8 263.25 155 263.5 155C263.8 155 264 154.55 264 154C264 153.35 264.35 153 265 153C265.55 153 266 152.8 266 152.5C266 152.25 265.8 152 265.5 152C265.25 152 265 151.35 265 150.5C265 149.7 264.75 149 264.45 149C264.2 149 264 149.4 264.05 149.9C264.25 152.2 264 153 262.95 153C262.3 153 261.95 152.7 262.05 152.15C262.25 149.9 262 149 261.05 149C260.5 149 260 149.3 259.85 149.65C259.7 150.05 259.25 149.85 258.55 149C257.6 148 257.35 147.9 256.95 148.5C256.55 149.15 256.45 149.15 256.05 148.55C255.65 147.95 255.45 147.95 254.75 148.65C254 149.4 254 149.6 254.7 150.25C255.5 151.1 258 151.3 258 150.5C258 150.25 258.25 150 258.5 150C259.3 150 259.1 151.5 258.15 152.4C257.55 153 257.25 153.05 257.1 152.6C256.9 151.9 255 151.8 255 152.5C255 152.8 255.45 153 256 153C257.7 153 257.15 154.45 254.5 157C253.15 158.35 252 159.55 252 159.7C252 159.85 252.45 160 253.05 160C253.6 160 253.95 159.8 253.8 159.6C253.7 159.4 253.75 158.9 254 158.5C254.35 157.95 254.6 158 255.35 158.75C256 159.4 256.05 159.75 255.6 159.9C254.65 160.2 254.9 161.35 256.15 162.7C257.5 164.15 258 164.3 258 163.2ZM270 163.2C270 162.75 269.5 161.95 268.9 161.4C267.95 160.6 267.9 160.35 268.5 159.95C269.05 159.55 269.1 159.35 268.65 159.15C268.3 159.05 268 158.25 268 157.45C268 155.8 267.75 155.7 266.65 156.75C265.95 157.45 266 157.65 267.05 158.6C267.85 159.3 268.05 159.7 267.65 159.85C266.65 160.2 266.9 161.6 268.15 162.85C269.5 164.15 270 164.25 270 163.2ZM272.15 163C272.3 162.45 272.75 162 273.2 162C274.15 162 274.25 162.8 273.4 163.15C273.05 163.25 272.9 163.55 273.1 163.75C273.3 163.95 273.85 163.75 274.3 163.25C275.05 162.55 275.05 162.35 274.45 161.95C273.85 161.55 273.85 161.4 274.5 160.95C275.05 160.55 275.1 160.35 274.65 160.15C273.65 159.75 273.9 159 275 159C275.55 159 276 159.25 276 159.5C276 159.8 276.45 160 277 160C277.65 160 278 159.65 278 159C278 158.45 277.8 158 277.5 158C277.25 158 277 158.25 277 158.55C277 158.8 276.75 158.9 276.4 158.7C275.95 158.4 275.95 158.25 276.4 158.1C276.75 158 277 157.55 277 157.05C277 156.6 277.45 155.9 278 155.5C278.55 155.1 279 154.6 279 154.4C279 154.2 278.55 154 278 154C277.4 154 277 154.35 277 154.8C277 155.2 276.65 155.95 276.2 156.35C275.55 157.05 275.35 157.05 275 156.45C274.65 155.9 274.35 156.05 273.5 157C272.65 158 272.35 158.1 272 157.5C271.75 157.1 271.4 156.95 271.2 157.1C271 157.3 271.55 158.15 272.45 158.95C274.25 160.65 274.35 161 273.05 161C272.5 161 272 161.3 271.85 161.65C271.7 162.05 271.3 161.8 270.6 161C270.05 160.3 269.4 159.9 269.2 160.1C269 160.35 269.35 160.9 269.9 161.45C270.5 161.95 271 162.75 271 163.2C271 164.35 271.85 164.2 272.15 163ZM294 163.2C294 162.75 293.5 161.95 292.9 161.4C291.95 160.6 291.9 160.35 292.5 159.95C293.05 159.55 293.1 159.35 292.65 159.15C292.3 159.05 292 158.25 292 157.45C292 156.65 291.9 156 291.75 156C291.6 156 290.7 156.8 289.75 157.75C287.7 159.75 287.65 160 289.1 160C289.7 160 290 159.85 289.85 159.65C289.65 159.5 289.75 159.05 290.05 158.7C290.5 158.15 290.75 158.2 291.4 158.85C292 159.45 292.05 159.75 291.6 159.9C290.65 160.2 290.9 161.4 292.15 162.75C293.45 164.15 294 164.3 294 163.2ZM306 163.2C306 162.75 305.5 161.95 304.9 161.4C303.95 160.6 303.9 160.35 304.5 159.95C305.05 159.55 305.1 159.35 304.65 159.15C304.3 159.05 304 158.25 304 157.45C304 156.65 303.9 156 303.75 156C303.6 156 302.7 156.8 301.75 157.75C299.7 159.75 299.65 160 301 160C301.65 160 302 159.65 302 159C302 157.8 302.3 157.75 303.4 158.85C304 159.45 304.05 159.75 303.6 159.9C302.65 160.2 302.9 161.4 304.15 162.75C305.45 164.15 306 164.3 306 163.2ZM5.5 162.2C5.5 161.75 5.75001 161.6 6.10001 161.8C6.50001 162.05 6.55 161.9 6.3 161.25C6.10001 160.75 6.20001 160.2 6.55 160C6.95001 159.7 6.95 159.35 6.5 158.5C6 157.6 6.05 157.3 6.55 156.95C7.15 156.55 7.15 156.4 6.55 156.05C5.95001 155.65 5.95 155.45 6.45 154.8C7.4 153.7 8.15 153.8 7.75 155C7.5 155.75 7.65 156 8.25 156C8.9 156 9.05 155.7 8.9 154.85C8.7 153.85 8.85001 153.7 9.85001 153.9C10.5 154 11 154.3 11 154.55C11 154.8 11.25 155 11.5 155C11.8 155 12 154.55 12 154C12 153.35 12.35 153 13 153C13.55 153 14 152.8 14 152.5C14 151.8 12.15 151.85 11.9 152.55C11.8 152.85 11.3 153.05 10.75 152.95C9.85 152.75 9.85 152.7 10.7 151.85C12.3 150.3 11.2 150.4 9.5 152C8.6 152.8 7.7 153.5 7.5 153.5C6.9 153.5 4 156 4 156.55C4 156.75 4.35 156.85 4.75 156.7C5.75 156.3 5.7 156.75 4.65 157.75C3.95 158.5 3.9 158.75 4.5 159.65C4.95 160.4 5 160.75 4.55 160.9C3.70001 161.2 3.9 163 4.75 163C5.15 163 5.5 162.65 5.5 162.2ZM18.3 160.3C19.15 159.4 19.2 158.15 18.4 157.85C17.9 157.65 17.95 157.45 18.5 157C19.05 156.55 19.1 156.35 18.65 156.15C18.05 155.95 17.7 154 18.2 154C19 154 20 154.7 20 155.3C20 155.7 20.25 156 20.5 156C21.1 156 21.2 154.2 20.65 153.85C20.4 153.75 20.6 153.75 21 153.9C21.4 154 22.05 154.15 22.4 154.15C22.7 154.15 23 154.35 23 154.6C23 154.8 23.25 155 23.5 155C23.8 155 24 154.55 24 154C24 153.35 24.35 153 25 153C25.55 153 26 152.8 26 152.5C26 152.25 25.8 152 25.5 152C25.25 152 25 151.35 25 150.5C25 149.7 24.8 149 24.5 149C24.25 149 24 149.9 24 151C24 152.65 23.85 153 23 153C22.2 153 22 152.65 22 151.3C22 149.3 21.3 148.65 20.2 149.5C19.6 150 19.3 149.95 18.5 149L17.55 147.9L16.25 149.2C14.65 150.8 14.65 151 16.5 151C17.35 151 18 150.8 18 150.5C18 150.25 18.25 150 18.5 150C18.8 150 19 150.45 19 151C19 151.55 19.25 152 19.5 152C19.8 152 20 151.65 20 151.25C20 150.85 20.25 150.5 20.5 150.5C21.25 150.5 21.1 151.45 20.2 152.35C19.55 153.05 19.35 153.05 18.95 152.45C18.55 151.85 18.4 151.85 17.95 152.5C17.55 153.05 17.35 153.1 17.15 152.65C16.85 151.9 15 151.8 15 152.5C15 152.8 15.45 153 16 153C17.15 153 17.4 154.7 16.4 155.2C15.9 155.45 15.9 155.55 16.4 155.8C16.7 155.95 17 156.7 17 157.5C17 158.3 17.3 159.05 17.65 159.2C18.15 159.45 18.15 159.55 17.65 159.8C17 160.1 16.75 161 17.3 161C17.45 161 17.9 160.7 18.3 160.3ZM119 160.5C119 160.25 118.8 160 118.5 160C118.25 160 118 159.8 118 159.5C118 159.25 118.35 159 118.8 159C119.75 159 121 157.8 121 156.9C121 156.5 121.45 155.9 122 155.5C122.55 155.1 123 154.6 123 154.4C123 154.2 122.55 154 122 154C121.4 154 121 154.35 121 154.8C121 155.2 120.65 155.95 120.2 156.35C119.55 157.05 119.35 157.05 119 156.45C118.65 155.9 118.35 156.05 117.5 157C116.65 158 116.35 158.1 116 157.5C115.75 157.1 115.4 156.9 115.25 157.1C114.9 157.4 118 161 118.6 161C118.85 161 119 160.8 119 160.5ZM263 160.5C263 160.25 262.8 160 262.5 160C262.25 160 262 159.8 262 159.5C262 159.25 262.45 159 262.95 159C263.5 159 264 158.7 264.15 158.4C264.25 158 264.55 157.95 264.8 158.2C265.05 158.45 265 158.75 264.65 158.85C263.65 159.2 263.9 160 265 160C265.65 160 266 159.65 266 159C266 158.45 265.8 158 265.5 158C264.6 158 265 156.45 266.25 155.2C266.95 154.5 267.5 153.9 267.5 153.8C267.5 153.7 266.95 153.75 266.25 153.9C265.55 154 265 154.45 265 154.85C265 155.25 264.65 155.95 264.2 156.35C263.55 157.05 263.35 157.05 263 156.45C262.65 155.9 262.35 156.05 261.5 157C260.65 158 260.35 158.1 260 157.5C259.75 157.1 259.4 156.9 259.25 157.1C258.9 157.4 262 160.95 262.65 161C262.85 161 263 160.8 263 160.5ZM61.7 159.2C62.15 158 61.7 157.75 60.75 158.65C59.8 159.6 59.8 160 60.7 160C61.1 160 61.55 159.65 61.7 159.2ZM134 159C134 157.8 133.7 157.75 132.7 158.7C131.75 159.7 131.8 160 133 160C133.65 160 134 159.65 134 159ZM170 159C170 158.45 169.8 158 169.5 158C169.25 158 169 158.25 169 158.55C169 158.8 168.75 158.9 168.4 158.7C167.95 158.4 167.95 158.25 168.4 158.1C168.75 158 169 157.55 169 157.05C169 156.6 169.45 155.9 170 155.5C170.55 155.1 171 154.6 171 154.4C171 154.2 170.55 154 170 154C169.4 154 169 154.35 169 154.8C169 155.2 168.65 155.95 168.2 156.35C167.55 157.05 167.35 157.05 167 156.45C166.65 155.9 166.35 156.05 165.5 157C164.65 158 164.35 158.1 164 157.5C163.75 157.1 163.4 156.95 163.2 157.15C163 157.35 163.35 157.95 164 158.5C165.4 159.7 165.55 159.75 165.2 158.75C165 158.35 165.15 158 165.45 158C165.75 158 166 158.25 166 158.5C166 158.8 166.45 159 167 159C167.55 159 168 159.25 168 159.5C168 159.8 168.45 160 169 160C169.65 160 170 159.65 170 159ZM181.85 159C181.9 158.45 181.75 158 181.45 158C181.2 158 181 158.25 181 158.55C181 158.8 180.75 158.9 180.4 158.7C179.95 158.4 179.95 158.25 180.4 158.1C180.75 158 181 157.55 181 157.05C181 156.6 181.45 155.9 182 155.5C182.55 155.1 183 154.6 183 154.4C183 154.2 182.55 154 182 154C181.4 154 181 154.35 181 154.8C181 155.2 180.65 155.95 180.2 156.35C179.55 157.05 179.35 157.05 179 156.45C178.65 155.9 178.35 156.05 177.5 157C176.65 158 176.35 158.1 176 157.5C175.75 157.1 175.4 156.95 175.2 157.15C175 157.35 175.35 157.95 176 158.5C177.4 159.7 177.55 159.75 177.2 158.75C177 158.35 177.15 158 177.45 158C177.75 158 178 158.25 178 158.5C178 158.8 178.45 159 179 159C179.55 159 180 159.25 180 159.5C180 160.5 181.8 160 181.85 159ZM193.75 159.15C193.9 158.65 193.8 158.2 193.55 158.1C192.65 157.8 192.95 156.25 194 155.5C194.55 155.1 195 154.6 195 154.4C195 154.2 194.55 154 194 154C193.4 154 193 154.35 193 154.8C193 155.2 192.65 155.95 192.2 156.35C191.55 157.05 191.35 157.05 191 156.45C190.65 155.9 190.35 156.05 189.5 157C188.65 158 188.35 158.1 188 157.5C187.75 157.1 187.4 156.95 187.2 157.15C187 157.35 187.35 157.95 188 158.5C189.4 159.7 189.55 159.75 189.2 158.75C189 158.35 189.15 158 189.45 158C189.75 158 190 158.25 190 158.5C190 158.8 190.45 159 191 159C191.55 159 192 159.25 192 159.5C192 160.35 193.35 160.05 193.75 159.15ZM271 159.05C271 158.5 270.7 158 270.4 157.9C269.55 157.6 271.1 156 272.2 156C272.65 156 273 155.6 273 155C273 154.35 273.35 154 274 154C274.55 154 275 154.25 275 154.5C275 154.8 275.25 155 275.5 155C275.8 155 276 154.55 276 154C276 153.35 276.35 153 277 153C277.55 153 278 152.8 278 152.5C278 152.25 277.8 152 277.5 152C277.25 152 277 151.35 277 150.5C277 149.7 276.75 149 276.45 149C276.2 149 276 149.4 276.05 149.9C276.25 152.15 276 153 275 153C274.15 153 274 152.65 274 151C274 149.35 273.85 149 273.05 149C272.5 149 271.95 149.3 271.8 149.65C271.65 150.05 271.25 149.9 270.6 149.15C269.5 147.9 268.5 147.55 269.5 148.75C269.85 149.2 270 149.7 269.8 149.85C269.6 150.05 269.25 149.9 268.95 149.5C268.55 148.85 268.45 148.85 268 149.5C267.55 150.15 267.45 150.15 267.05 149.5C266.75 149.1 266.4 148.95 266.2 149.1C266.05 149.3 266.25 149.8 266.65 150.25C267.5 151.1 270 151.3 270 150.5C270 150.25 270.25 150 270.5 150C271.3 150 271.1 151.5 270.15 152.4C269.55 153 269.25 153.05 269.1 152.6C268.9 151.9 267 151.8 267 152.5C267 152.8 267.45 153 268 153C269.15 153 269.4 154.7 268.4 155.2C267.9 155.45 267.9 155.55 268.4 155.8C268.7 155.95 269 156.65 269 157.3C269 158.5 269.85 159.95 270.65 160C270.85 160 271 159.55 271 159.05ZM57 155C57 154.35 57.35 154 58 154C58.55 154 59 154.25 59 154.5C59 154.8 59.25 155 59.5 155C59.8 155 60 154.55 60 154C60 153.35 60.35 153 61 153C62.05 153 62.35 152.25 61.5 151.75C61.25 151.6 61 150.9 61 150.2C61 149.55 60.8 149 60.5 149C60.25 149 60 149.9 60 151C60 152.65 59.85 153 59 153C58.15 153 58 152.65 58 151C58 149.35 57.85 149 57.05 149C56.5 149 55.95 149.3 55.85 149.65C55.65 150.1 55.45 150.05 55.05 149.5C54.55 148.85 54.45 148.85 54.05 149.5C53.65 150.1 53.4 150.05 52.55 149.05C51.6 148 51.45 147.95 50.75 148.7C50 149.4 50 149.6 50.7 150.25C51.5 151.1 54 151.3 54 150.5C54 150.25 54.25 150 54.5 150C54.8 150 55 150.35 55 150.75C55 151.15 55.25 151.5 55.5 151.5C55.8 151.5 56 151.15 56 150.75C56 150.35 56.25 150 56.5 150C57.2 150 57.1 151.85 56.4 152.15C55.9 152.35 55.95 152.55 56.5 153C57.05 153.45 57.1 153.65 56.65 153.85C55.9 154.15 55.8 156 56.5 156C56.8 156 57 155.55 57 155ZM141 155C141 154.45 140.8 154 140.5 154C140.25 154 140 154.45 140 155C140 155.55 140.25 156 140.5 156C140.8 156 141 155.55 141 155ZM201 155C201 154.45 200.8 154 200.5 154C200.25 154 200 154.45 200 155C200 155.55 200.25 156 200.5 156C200.8 156 201 155.55 201 155ZM285 155C285 154.45 284.8 154 284.5 154C284.25 154 284 154.45 284 155C284 155.55 284.25 156 284.5 156C284.8 156 285 155.55 285 155ZM132 154C132 153.35 132.35 153 133 153C133.55 153 134 152.8 134 152.5C134 152.25 133.8 152 133.5 152C133.25 152 133 151.35 133 150.5C133 149.7 132.8 149 132.5 149C132.25 149 132 149.9 132 151C132 152.65 131.85 153 131 153C130.15 153 130 152.7 130.15 151C130.3 149.2 130.2 149 129.2 149C128.6 149 128 149.3 127.85 149.65C127.7 150.05 127.25 149.85 126.55 149C125.6 148 125.35 147.9 124.95 148.5C124.55 149.15 124.45 149.15 124.05 148.55C123.65 147.95 123.45 147.95 122.75 148.65C122 149.4 122 149.6 122.7 150.25C123.5 151.1 126 151.3 126 150.5C126 150.25 126.25 150 126.5 150C126.8 150 127 150.35 127 150.8C127 151.8 129.95 154.6 130.55 154.2C130.8 154.05 131 154.2 131 154.45C131 154.75 131.25 155 131.5 155C131.8 155 132 154.55 132 154ZM121.65 152.15C121.3 152 121 151.25 121 150.45C121 149.65 120.8 149 120.5 149C120.25 149 120 149.9 120 150.95C120 152.95 120.8 153.8 121.75 152.9C122.1 152.55 122.05 152.3 121.65 152.15ZM209 152.45C209 152.2 208.55 152 208 152C206.9 152 206.65 152.8 207.65 153.15C208.4 153.4 209 153.1 209 152.45ZM74 152.5C74 152.25 73.8 152 73.5 152C73.25 152 73 151.35 73 150.5C73 149.7 72.8 149 72.5 149C72.25 149 72 149.9 72 151C72 152.65 72.15 153 73 153C73.55 153 74 152.8 74 152.5ZM314 152.5C314 152.25 313.8 152 313.5 152C313.25 152 313 151.55 313 151C313 150.4 313.35 150 313.85 150C314.5 150 314.55 149.85 314.15 149.45C313.7 149 313.35 149.05 312.8 149.65C311.85 150.6 311.8 151.3 312.65 152.25C313.35 153.1 314 153.2 314 152.5ZM29.5 150.55C29.5 150.25 29 150.15 28.45 150.25C26.8 150.55 26.65 151 28.15 151C28.9 151 29.5 150.8 29.5 150.55ZM210 150.55C210 150.3 209.7 149.95 209.4 149.85C208.9 149.65 208.95 149.45 209.5 149.05C209.9 148.8 210.05 148.4 209.85 148.15C209.6 147.95 209.25 148.1 208.95 148.5C208.55 149.15 208.45 149.15 208.05 148.55C207.65 147.95 207.45 147.95 206.75 148.65C206.1 149.35 206.05 149.6 206.6 150.2C207.3 151.05 210 151.3 210 150.55ZM15.3 149.45C15.55 149.05 15.3 148.9 13.9 148.8C13.6 148.75 13.3 149.1 13.25 149.55C13.15 150.15 13.4 150.3 14.05 150.15C14.6 150 15.15 149.7 15.3 149.45ZM213.85 147.05C213.8 146.25 213.35 146.05 211.4 145.9C210.1 145.8 209 145.9 209 146.05C209 146.65 210.25 146.9 211.65 146.65C212.65 146.45 213 146.6 213 147.2C213 147.65 213.2 148 213.45 148C213.75 148 213.9 147.55 213.85 147.05ZM85.85 142.15C85.3 141.65 82 141.6 82.3 142.05C82.45 142.3 83.35 142.5 84.35 142.5C85.35 142.5 86 142.35 85.85 142.15ZM54.45 138.75C54.3 138.65 53.65 139.25 53 140.15L51.85 141.75L53.3 140.4C54.05 139.65 54.6 138.9 54.45 138.75ZM79.25 141.05C78.95 140.8 78.1 140.45 77.25 140.25L75.75 139.95L77.25 140.7C79 141.55 79.9 141.7 79.25 141.05ZM123.65 129.15C123 129.05 121.9 129.05 121.15 129.15C120.35 129.25 120.9 129.35 122.25 129.35C123.65 129.35 124.25 129.25 123.65 129.15ZM127.4 128.65C126.9 128.55 126.1 128.55 125.65 128.65C125.15 128.8 125.55 128.9 126.5 128.9C127.45 128.9 127.85 128.8 127.4 128.65Z" fill="#F5F5FC"/>
</svg>
